<?xml version="1.0" standalone="no"?>
<!DOCTYPE svg PUBLIC "-//W3C//DTD SVG 20010904//EN"
 "http://www.w3.org/TR/2001/REC-SVG-20010904/DTD/svg10.dtd">
<svg version="1.0" xmlns="http://www.w3.org/2000/svg"
 width="300.000000pt" height="173.000000pt" viewBox="0 0 300.000000 173.000000"
 preserveAspectRatio="xMidYMid meet">
<metadata>
Created by potrace 1.10, written by Peter Selinger 2001-2011
</metadata>
<g transform="translate(0.000000,173.000000) scale(0.100000,-0.100000)"
fill="#000000" stroke="none">
<path d="M2420 828 c0 -5 -4 -6 -10 -3 -15 9 -84 -31 -142 -82 -29 -25 -54
-49 -56 -53 -5 -12 40 -20 57 -11 9 5 42 5 73 2 32 -4 64 -3 72 1 34 19 117
27 169 17 64 -13 66 -13 100 -27 16 -7 40 -12 55 -12 l27 1 -30 16 c-16 9 -61
40 -100 70 -38 30 -83 62 -99 70 -33 17 -116 25 -116 11z m141 -46 c24 -17 52
-39 61 -49 16 -17 13 -18 -85 -18 -56 0 -111 -4 -122 -9 -19 -8 -136 -9 -144
0 -11 10 63 69 129 101 39 20 111 8 161 -25z"/>
<path d="M1900 767 c-3 -3 -21 -7 -40 -10 -52 -8 -79 -15 -93 -24 -6 -4 -18
-8 -25 -9 -25 -4 -232 -128 -224 -135 4 -3 21 -9 38 -12 23 -4 36 0 55 16 13
13 49 34 79 49 46 22 67 26 130 24 74 -2 101 -11 186 -61 l32 -19 86 34 c47
19 84 39 83 44 -4 13 -116 74 -147 80 -14 3 -35 7 -47 10 -47 10 -108 17 -113
13z m87 -26 c34 -5 92 -24 129 -41 l67 -32 -64 -29 c-78 -35 -82 -35 -122 -6
-53 38 -98 50 -182 50 -64 0 -89 -5 -122 -22 -24 -13 -48 -21 -54 -19 -19 6
160 89 211 98 63 11 67 11 137 1z m-383 -126 c-7 -16 -24 -21 -24 -6 0 8 7 13
27 20 1 1 0 -6 -3 -14z"/>
<path d="M119 736 c-59 -23 -119 -56 -119 -66 0 -6 12 -5 28 3 69 35 101 47
147 56 28 5 54 6 58 2 12 -12 -192 -113 -214 -106 -14 5 -17 2 -13 -9 3 -9 14
-16 24 -16 19 0 152 68 161 82 3 5 9 9 13 8 4 -2 22 5 39 13 18 9 41 19 52 22
20 7 20 7 0 15 -34 12 -138 10 -176 -4z"/>
<path d="M590 736 c-3 -2 -21 -8 -40 -11 -19 -3 -36 -8 -38 -10 -11 -11 70
-40 118 -42 53 -3 102 -9 108 -13 1 -2 5 -3 10 -5 17 -5 50 -18 91 -36 41 -19
101 -19 101 -1 0 12 -153 90 -185 96 -17 2 -30 5 -30 6 0 7 -130 22 -135 16z
m115 -27 c55 -13 171 -62 157 -67 -7 -2 -42 6 -80 18 -37 12 -95 23 -130 24
-60 2 -102 20 -71 30 31 10 55 13 69 9 8 -3 33 -9 55 -14z"/>
<path d="M1219 726 c-3 -3 -16 -8 -30 -10 -13 -2 -24 -5 -24 -6 0 -1 -10 -3
-23 -6 -32 -6 -172 -67 -172 -75 0 -4 17 -1 37 6 44 15 124 13 171 -5 23 -8
41 -9 55 -3 12 5 49 8 82 6 55 -2 145 21 145 38 0 6 -93 40 -129 47 -59 10
-106 13 -112 8z m117 -28 c41 -11 74 -24 74 -29 0 -7 -69 -17 -130 -18 -19 -1
-44 -3 -55 -5 -11 -1 -34 3 -52 10 -18 8 -39 11 -47 8 -9 -3 -16 -2 -16 4 0
10 100 48 133 51 10 0 52 -9 93 -21z"/>
<path d="M330 710 c-8 -5 -17 -7 -21 -4 -4 2 -10 0 -14 -6 -4 -6 -11 -8 -16
-4 -5 3 -15 1 -22 -4 -7 -6 -52 -31 -102 -56 -49 -26 -91 -49 -94 -52 -9 -9
221 -2 253 8 17 5 38 11 46 13 8 2 56 16 105 32 l90 29 -33 18 c-19 10 -44 20
-55 23 -40 10 -123 12 -137 3z m150 -25 l25 -13 -30 -12 c-16 -6 -60 -20 -97
-30 -37 -10 -72 -21 -76 -24 -16 -10 -162 -15 -162 -6 0 13 107 71 158 85 63
18 151 18 182 0z"/>
<path d="M2499 686 c-4 -5 -37 -13 -61 -15 -21 -2 -2 -19 51 -45 57 -28 60
-29 93 -13 18 9 47 21 63 27 l30 12 -36 13 c-42 15 -132 28 -140 21z m74 -22
c47 -8 47 -16 1 -31 -31 -9 -41 -8 -66 7 -42 25 -12 36 65 24z"/>
<path d="M2932 669 c-23 -4 -74 -25 -112 -45 -67 -35 -87 -54 -56 -54 8 0 52
-20 99 -45 115 -60 137 -69 137 -50 0 8 -12 18 -27 22 -49 14 -173 85 -167 95
10 17 107 58 136 58 33 0 58 9 58 21 0 10 -8 10 -68 -2z"/>
<path d="M1497 654 c-3 -3 -17 -7 -33 -10 -51 -9 -60 -20 -24 -32 27 -10 38
-8 81 13 27 14 49 27 49 28 0 5 -68 5 -73 1z"/>
<path d="M2250 653 c-8 -3 -42 -18 -75 -33 -33 -15 -75 -33 -93 -40 -31 -12
-32 -14 -17 -31 15 -16 19 -16 53 -2 50 21 166 13 219 -14 l39 -21 43 24 c24
13 58 28 75 34 l31 11 -65 37 c-54 30 -76 37 -130 39 -36 1 -72 0 -80 -4z
m169 -35 c23 -12 41 -25 41 -30 0 -4 -17 -16 -38 -27 -39 -20 -39 -20 -101 0
-35 10 -83 19 -107 19 -45 0 -59 13 -26 24 9 3 33 12 52 20 54 22 131 20 179
-6z"/>
<path d="M550 643 c-8 -2 -63 -20 -122 -39 -59 -19 -116 -36 -128 -37 -24 -2
-26 -10 -5 -27 12 -10 26 -9 73 4 77 21 167 29 222 19 37 -7 55 -4 105 16 33
13 72 24 88 23 43 -1 24 14 -42 32 -54 15 -152 20 -191 9z m149 -22 c11 -7 9
-12 -10 -22 -26 -15 -231 -20 -222 -6 2 4 12 7 22 7 9 0 21 4 27 9 17 17 160
26 183 12z"/>
<path d="M1726 635 c-48 -17 -125 -70 -189 -130 -26 -25 -52 -45 -57 -45 -6 0
-10 -4 -10 -8 0 -21 14 -17 48 14 20 18 55 49 77 69 53 48 170 102 215 100 57
-3 103 -16 140 -38 37 -23 95 -77 82 -77 -5 0 -17 -8 -28 -18 -31 -29 -135
-87 -188 -105 -98 -33 -306 -15 -342 30 -8 9 -21 12 -39 7 -32 -8 -25 -15 36
-38 68 -25 85 -28 186 -33 75 -4 104 -1 162 16 70 21 218 110 228 138 8 20
-51 78 -105 104 -54 26 -161 33 -216 14z"/>
<path d="M2680 630 c0 -12 8 -12 35 0 18 8 17 9 -7 9 -16 1 -28 -3 -28 -9z"/>
<path d="M2723 621 c-18 -17 -23 -18 -40 -6 -15 11 -24 11 -51 0 -18 -8 -32
-16 -32 -19 0 -3 28 -5 63 -5 43 1 72 7 95 21 17 11 32 22 32 24 0 12 -49 1
-67 -15z"/>
<path d="M993 611 c-70 -22 -73 -28 -19 -36 53 -8 135 0 150 15 5 5 19 10 30
10 15 0 17 3 8 12 -18 18 -112 17 -169 -1z m111 0 c3 -5 -4 -11 -17 -15 -36
-9 -75 -7 -83 6 -4 6 -3 8 4 5 5 -4 21 -3 34 2 30 13 55 13 62 2z"/>
<path d="M1160 579 c-46 -17 -96 -28 -130 -28 l-55 -1 50 -32 c106 -66 155
-87 182 -77 32 12 89 12 133 -1 29 -8 43 -6 85 15 28 13 70 41 94 61 l43 38
-43 13 c-24 7 -56 15 -71 18 -15 3 -37 9 -50 14 -49 18 -160 9 -238 -20z m272
-10 c40 -12 75 -23 77 -25 7 -6 -43 -43 -87 -64 -35 -17 -53 -19 -105 -14 -34
4 -69 6 -77 5 -62 -6 -94 -1 -137 25 l-48 28 35 9 c38 10 57 16 110 39 54 23
148 22 232 -3z"/>
<path d="M0 561 c0 -18 3 -19 31 -9 34 12 34 13 -3 22 -23 5 -28 3 -28 -13z"/>
<path d="M723 566 c-48 -17 -49 -23 -2 -47 52 -26 105 -60 174 -110 89 -65
128 -69 212 -19 43 25 54 40 30 40 -7 0 -35 15 -62 33 -102 67 -158 98 -176
100 -11 1 -19 4 -19 8 0 11 -121 7 -157 -5z m223 -46 c44 -22 90 -49 102 -60
12 -11 25 -20 30 -20 4 0 13 -5 20 -12 17 -17 -39 -48 -90 -48 -32 0 -52 8
-92 38 -28 21 -78 53 -111 72 -90 50 -92 53 -59 66 46 19 112 7 200 -36z"/>
<path d="M2580 567 c0 -4 -5 -5 -10 -2 -13 8 -147 -42 -157 -58 -3 -6 1 -16
11 -21 10 -6 48 -34 86 -63 121 -92 179 -111 230 -76 14 9 27 20 30 24 11 15
115 61 154 68 l41 7 -105 56 c-58 31 -121 60 -140 63 -53 10 -140 12 -140 2z
m197 -41 c118 -55 134 -73 81 -87 -15 -4 -55 -26 -89 -48 -34 -23 -70 -41 -81
-41 -19 0 -99 37 -108 50 -3 4 -16 13 -30 20 -14 7 -44 29 -68 48 l-44 36 29
14 c89 47 219 50 310 8z"/>
<path d="M163 563 c9 -2 23 -2 30 0 6 3 -1 5 -18 5 -16 0 -22 -2 -12 -5z"/>
<path d="M54 541 c-23 -10 -45 -25 -49 -32 -5 -6 -4 -10 1 -8 20 11 61 28 99
43 33 12 35 15 15 15 -14 0 -44 -8 -66 -18z"/>
<path d="M229 541 l23 -18 -33 -15 c-19 -9 -74 -33 -124 -54 -102 -43 -101
-42 -92 -51 7 -6 37 5 147 56 30 13 57 25 60 26 3 0 22 7 43 14 l39 13 -23 24
c-12 13 -32 24 -43 24 -20 0 -20 -1 3 -19z"/>
<path d="M455 540 c-94 -19 -131 -32 -305 -105 -132 -56 -168 -75 -141 -75 13
0 194 71 229 89 18 10 97 40 122 47 199 54 267 41 456 -86 170 -115 201 -119
326 -47 94 54 139 53 313 -4 116 -38 140 -42 220 -41 100 1 98 0 174 26 56 19
211 112 211 126 0 5 21 18 46 30 38 19 57 22 113 18 62 -5 145 -35 183 -68
102 -87 248 -170 299 -170 18 0 64 27 96 57 7 6 22 15 33 18 11 3 20 10 20 15
0 5 34 14 75 21 83 13 99 29 30 29 -56 0 -99 -17 -172 -70 -43 -30 -66 -40
-95 -40 -49 0 -77 15 -195 101 -124 90 -188 119 -274 126 -60 5 -75 2 -121
-21 -29 -14 -71 -42 -93 -61 -51 -45 -145 -92 -218 -109 -98 -23 -187 -14
-325 32 -91 31 -141 42 -191 43 -63 1 -73 -2 -138 -40 -119 -71 -150 -66 -294
40 -134 99 -273 142 -384 119z"/>
</g>
</svg>
