<?xml version="1.0" encoding="utf-8"?>
<!-- Generator: Adobe Illustrator 19.0.0, SVG Export Plug-In . SVG Version: 6.00 Build 0)  -->
<svg version="1.1" id="Layer_1" xmlns="http://www.w3.org/2000/svg" xmlns:xlink="http://www.w3.org/1999/xlink" x="0px" y="0px"
	 width="841.9px" height="595.3px" viewBox="0 0 841.9 595.3" style="enable-background:new 0 0 841.9 595.3;" xml:space="preserve"
	>
<style type="text/css">
	.st0{clip-path:url(#XMLID_46_);}
	.st1{fill:#ADDC7C;}
	.st2{fill:#D1F0C4;}
	.st3{fill:url(#XMLID_47_);}
	.st4{fill:#F2E9CC;}
	.st5{fill:#F2E5B1;}
	.st6{fill:url(#XMLID_48_);}
	.st7{fill:url(#XMLID_49_);}
	.st8{fill:#529130;}
	.st9{fill:#7DA84A;}
	.st10{fill:url(#XMLID_50_);}
	.st11{fill:#196815;}
	.st12{fill:#09806D;}
	.st13{fill:#F99F25;}
	.st14{fill:#AC4A63;}
	.st15{fill:#DBA368;}
	.st16{fill:#00AE7D;}
	.st17{fill:#029B63;}
	.st18{fill:#C1550A;}
	.st19{fill:#CB6771;}
	.st20{fill:#097464;}
	.st21{fill:#C66D31;}
	.st22{fill:#F58000;}
	.st23{fill:#FFB005;}
	.st24{fill:#FFD134;}
	.st25{fill:#F6CC44;}
	.st26{fill:#FFB408;}
	.st27{fill:#407606;}
	.st28{fill:#72BC5B;}
	.st29{fill:#539300;}
	.st30{fill:#D27434;}
	.st31{fill:#FFEE3E;}
	.st32{fill:#8FAF1D;}
	.st33{fill:#FDCD01;}
	.st34{fill:url(#XMLID_57_);}
	.st35{fill:#B47762;}
	.st36{fill:#83A338;}
	.st37{fill:#90593B;}
	.st38{fill:#C26464;}
</style>
<g id="XMLID_248_">
	<defs>
		<rect id="XMLID_23_" width="841.9" height="595.3"/>
	</defs>
	<clipPath id="XMLID_46_">
		<use xlink:href="#XMLID_23_"  style="overflow:visible;"/>
	</clipPath>
	<g id="XMLID_6_" class="st0">
		<rect id="XMLID_3_" class="st1" width="841.9" height="595.3"/>
		<g id="XMLID_1_">
			<g id="XMLID_953_">
				<path id="XMLID_965_" class="st2" d="M701.2,70.8c-2.8-1.5-6.5-2.5-9.2-0.8c-0.2-9.2-8.8-17.3-18-16.9
					c-9.2,0.4-17.4,9.3-16.9,18.5c-3.1-3.8-8.3-5.7-13.1-4.9c-4.8,0.8-9,7.4-10.7,12l72.5-0.2C705.8,75.2,704,72.2,701.2,70.8z"/>
				<path id="XMLID_964_" class="st2" d="M864.5,31.8c-2.8-1.5-6.5-2.5-9.2-0.8c-0.2-9.2-8.8-17.3-18-16.9
					c-9.2,0.4-17.4,9.3-16.9,18.5c-3.1-3.8-8.3-5.7-13.1-4.9c-4.8,0.8-9,7.4-10.7,12l72.5-0.2C869.1,36.3,867.2,33.2,864.5,31.8z"/>
				<path id="XMLID_963_" class="st2" d="M509.3,86.4c-1.5-0.8-3.5-1.4-5-0.5c-0.1-5-4.8-9.4-9.7-9.2c-5,0.2-9.4,5-9.1,10
					c-1.7-2-4.5-3.1-7.1-2.6s-4.9,4-5.8,6.5l39.3-0.1C511.8,88.8,510.8,87.2,509.3,86.4z"/>
				<path id="XMLID_962_" class="st2" d="M837.6,86.4c-1.5-0.8-3.5-1.4-5-0.5c-0.1-5-4.8-9.4-9.7-9.2c-5,0.2-9.4,5-9.1,10
					c-1.7-2-4.5-3.1-7.1-2.6s-4.9,4-5.8,6.5l39.3-0.1C840.1,88.8,839,87.2,837.6,86.4z"/>
				<path id="XMLID_961_" class="st2" d="M611.4,217c-1.5-0.8-3.5-1.4-5-0.5c-0.1-5-4.8-9.4-9.7-9.2c-5,0.2-9.4,5-9.1,10
					c-1.7-2-4.5-3.1-7.1-2.6c-2.6,0.4-4.9,4-5.8,6.5l39.3-0.1C613.9,219.4,612.9,217.7,611.4,217z"/>
				<path id="XMLID_960_" class="st2" d="M295.1,106.7c-1.5-0.8-3.5-1.4-5-0.5c-0.1-5-4.8-9.4-9.7-9.2c-5,0.2-9.4,5-9.1,10
					c-1.7-2-4.5-3.1-7.1-2.6c-2.6,0.4-4.9,4-5.8,6.5l39.3-0.1C297.6,109.1,296.6,107.5,295.1,106.7z"/>
				<path id="XMLID_959_" class="st2" d="M55.6,79.4c-1.5-0.8-3.5-1.4-5-0.5c-0.1-5-4.8-9.4-9.7-9.2c-5,0.2-9.4,5-9.1,10
					c-1.7-2-4.5-3.1-7.1-2.6c-2.6,0.4-4.9,4-5.8,6.5l39.3-0.1C58.1,81.9,57.1,80.2,55.6,79.4z"/>
				<path id="XMLID_958_" class="st2" d="M418.5,140.7c-1.5-0.8-3.5-1.4-5-0.5c-0.1-5-4.8-9.4-9.7-9.2c-5,0.2-9.4,5-9.1,10
					c-1.7-2-4.5-3.1-7.1-2.6c-2.6,0.4-4.9,4-5.8,6.5l39.3-0.1C421,143.1,420,141.5,418.5,140.7z"/>
				<path id="XMLID_957_" class="st2" d="M582.4,44.9c-4.6-1.1-9.6,2.8-9.8,7.5c-2.6-4-9.6-3.8-12.1,0.3c1.6-6.8-1.2-14.5-6.9-18.7
					c-5.7-4.1-13.9-4.5-19.9-0.8c-6,3.7-9.5,11.1-8.4,18c-2.9-1.8-6.7-2-9.8-0.4c-3,1.6-5.1,4.8-5.4,8.2h77.6
					C589.8,54.9,587,46,582.4,44.9z"/>
				<path id="XMLID_956_" class="st2" d="M149.7,33.8c-4.6-1.1-9.6,2.8-9.8,7.5c-2.6-4-9.6-3.8-12.1,0.3c1.6-6.8-1.2-14.5-6.9-18.7
					c-5.7-4.1-13.9-4.5-19.9-0.8c-6,3.7-9.5,11.1-8.4,18c-2.9-1.8-6.7-2-9.8-0.4c-3,1.6-5.1,4.8-5.4,8.2h77.6
					C157.1,43.7,154.3,34.9,149.7,33.8z"/>
				<path id="XMLID_955_" class="st2" d="M195.4,69.8c-2.3-0.5-4.9,1.4-4.9,3.8c-1.3-2-4.9-1.9-6.1,0.2c0.8-3.4-0.6-7.3-3.5-9.4
					c-2.9-2.1-7-2.2-10-0.4c-3,1.8-4.8,5.6-4.2,9.1c-1.5-0.9-3.4-1-4.9-0.2c-1.5,0.8-2.6,2.4-2.7,4.1h39.1
					C199.1,74.8,197.7,70.3,195.4,69.8z"/>
				<path id="XMLID_954_" class="st2" d="M262.7,19.6c-2.3-0.5-4.9,1.4-4.9,3.8c-1.3-2-4.9-1.9-6.1,0.2c0.8-3.4-0.6-7.3-3.5-9.4
					c-2.9-2.1-7-2.2-10-0.4c-3,1.8-4.8,5.6-4.2,9.1c-1.5-0.9-3.4-1-4.9-0.2c-1.5,0.8-2.6,2.4-2.7,4.1h39.1
					C266.5,24.6,265,20.2,262.7,19.6z"/>
			</g>
		</g>
		<g id="XMLID_30_">
			<g id="XMLID_25_">
				<g id="XMLID_24_">
					<linearGradient id="XMLID_47_" gradientUnits="userSpaceOnUse" x1="337.0711" y1="147.9879" x2="337.0711" y2="255.9106">
						<stop  offset="0" style="stop-color:#7FCC7E"/>
						<stop  offset="1" style="stop-color:#7FCC7E;stop-opacity:0"/>
					</linearGradient>
					<polygon id="XMLID_17_" class="st3" points="203.7,255.9 326.6,148 470.5,255.9 					"/>
					<polygon id="XMLID_20_" class="st4" points="309.3,163.2 322.5,171.9 325.1,163.2 331.3,180.7 326.6,148 					"/>
					<polygon id="XMLID_14_" class="st5" points="326.6,148 331.3,180.7 337.1,171.9 374,183.6 					"/>
				</g>
				<g id="XMLID_22_">
					<linearGradient id="XMLID_48_" gradientUnits="userSpaceOnUse" x1="163.9741" y1="87.8003" x2="163.9741" y2="255.9106">
						<stop  offset="0" style="stop-color:#7FCC7E"/>
						<stop  offset="1" style="stop-color:#7FCC7E;stop-opacity:0"/>
					</linearGradient>
					<polygon id="XMLID_11_" class="st6" points="-43.8,255.9 147.6,87.8 371.8,255.9 					"/>
					<polygon id="XMLID_13_" class="st4" points="120.2,111.9 127,121.7 134.4,116.8 148.4,160.2 147.6,87.8 					"/>
					<polygon id="XMLID_9_" class="st5" points="147.6,87.8 148.4,160.2 155.4,141.5 178.8,156.7 184.6,147.7 226.2,167.6 
						232.5,162.1 259.7,171.9 					"/>
				</g>
			</g>
			<g id="XMLID_27_">
				<g id="XMLID_28_">
					<linearGradient id="XMLID_49_" gradientUnits="userSpaceOnUse" x1="695.58" y1="117.8941" x2="695.58" y2="286.0044">
						<stop  offset="0" style="stop-color:#7FCC7E"/>
						<stop  offset="1" style="stop-color:#7FCC7E;stop-opacity:0"/>
					</linearGradient>
					<polygon id="XMLID_47_" class="st7" points="487.8,286 679.2,117.9 903.4,286 					"/>
					<polygon id="XMLID_32_" class="st4" points="651.8,142 658.6,151.7 666,146.8 680,190.3 679.2,117.9 					"/>
					<polygon id="XMLID_29_" class="st5" points="679.2,117.9 680,190.3 687,171.6 710.4,186.8 716.2,177.8 757.8,197.7 
						764.1,192.2 791.3,201.9 					"/>
				</g>
			</g>
		</g>
		<g id="XMLID_61_">
			<g id="XMLID_237_">
				<path id="XMLID_297_" class="st8" d="M335.2,387.1c0-11.8-9.9-21.2-21.8-20.4c-10.2,0.6-18.5,9-19.1,19.2
					c-0.5,8.5,4.2,16,11.2,19.5c3.7,1.8,6,5.5,6,9.6v33.8h6.4v-31.3c0-5.2,2.8-10.1,7.3-12.8C331.2,401.2,335.2,394.6,335.2,387.1z"
					/>
				<g id="XMLID_208_">
					<path id="XMLID_213_" class="st8" d="M209.2,374.7h-22.6c-4.4,0-7.9,3.5-7.9,7.9v0c0,4.4,3.5,7.9,7.9,7.9h0
						c5.8,0,10.5,4.7,10.5,10.5v47.8h1.5V401c0-5.8,4.7-10.5,10.5-10.5h0c4.4,0,7.9-3.5,7.9-7.9v0
						C217.1,378.2,213.6,374.7,209.2,374.7z"/>
					<path id="XMLID_210_" class="st9" d="M205.9,343.2h-32.2c-6.2,0-11.3,5-11.3,11.3v0c0,6.2,5,11.3,11.3,11.3h0
						c8.3,0,15,6.7,15,15v68h2.2v-68c0-8.3,6.7-15,15-15h0c6.2,0,11.3-5,11.3-11.3v0C217.1,348.3,212.1,343.2,205.9,343.2z"/>
					<path id="XMLID_239_" class="st9" d="M43,322.9H4.6c-7.4,0-13.4,6-13.4,13.4v0c0,7.4,6,13.4,13.4,13.4h0
						c9.9,0,17.9,8,17.9,17.9v81.2h2.6v-81.2c0-9.9,8-17.9,17.9-17.9h0c7.4,0,13.4-6,13.4-13.4v0C56.5,328.9,50.5,322.9,43,322.9z"
						/>
					<linearGradient id="XMLID_50_" gradientUnits="userSpaceOnUse" x1="239.1275" y1="363.9894" x2="239.1275" y2="448.812">
						<stop  offset="0" style="stop-color:#2B5E71"/>
						<stop  offset="0.2517" style="stop-color:#2D6170"/>
						<stop  offset="0.4229" style="stop-color:#356A6D"/>
						<stop  offset="0.5703" style="stop-color:#427968"/>
						<stop  offset="0.7041" style="stop-color:#558F60"/>
						<stop  offset="0.8288" style="stop-color:#6DAA56"/>
						<stop  offset="0.9451" style="stop-color:#8ACC4B"/>
						<stop  offset="1" style="stop-color:#9ADF44"/>
					</linearGradient>
					<path id="XMLID_216_" class="st10" d="M252.1,364h-25.9c-5,0-9.1,4.1-9.1,9.1v0c0,5,4.1,9.1,9.1,9.1h0
						c6.7,0,12.1,5.4,12.1,12.1v54.7h1.8v-54.7c0-6.7,5.4-12.1,12.1-12.1h0c5,0,9.1-4.1,9.1-9.1v0C261.1,368,257.1,364,252.1,364z"
						/>
					<path id="XMLID_211_" class="st8" d="M146,384.2h-19.7c-3.8,0-6.9,3.1-6.9,6.9l0,0c0,3.8,3.1,6.9,6.9,6.9h0
						c5.1,0,9.2,4.1,9.2,9.2v41.7h1.3v-41.7c0-5.1,4.1-9.2,9.2-9.2h0c3.8,0,6.9-3.1,6.9-6.9l0,0C152.9,387.3,149.8,384.2,146,384.2z
						"/>
					<path id="XMLID_236_" class="st11" d="M111,369.6H86.8c-4.7,0-8.5,3.8-8.5,8.5v0c0,4.7,3.8,8.5,8.5,8.5h0
						c6.2,0,11.3,5,11.3,11.3v51h1.6v-51c0-6.2,5-11.3,11.3-11.3h0c4.7,0,8.5-3.8,8.5-8.5v0C119.4,373.4,115.6,369.6,111,369.6z"/>
					<path id="XMLID_214_" class="st9" d="M304.1,370.4c0-15-12.6-27-27.8-26c-13,0.8-23.5,11.4-24.3,24.4
						c-0.6,10.8,5.3,20.3,14.3,24.8c4.6,2.4,7.7,7,7.7,12.2v43h8.1V409c0-6.7,3.5-12.8,9.2-16.2
						C298.9,388.2,304.1,379.9,304.1,370.4z"/>
					<path id="XMLID_234_" class="st8" d="M82.2,395.5c0-10.2-8.6-18.3-18.8-17.7c-8.8,0.6-16,7.8-16.5,16.6
						c-0.4,7.4,3.6,13.8,9.7,16.9c3.2,1.6,5.2,4.7,5.2,8.3v29.2h5.5v-27c0-4.5,2.4-8.7,6.3-11C78.7,407.7,82.2,402,82.2,395.5z"/>
					<path id="XMLID_222_" class="st11" d="M183.6,385.1c0-12.2-10.2-21.9-22.6-21.1c-10.6,0.7-19.1,9.3-19.8,19.8
						c-0.5,8.8,4.3,16.5,11.6,20.2c3.8,1.9,6.3,5.7,6.3,9.9v35h6.6v-32.4c0-5.4,2.8-10.4,7.5-13.2
						C179.4,399.6,183.6,392.8,183.6,385.1z"/>
					<path id="XMLID_217_" class="st9" d="M127.1,363.7h-25.9c-5,0-9.1,4.1-9.1,9.1v0c0,5,4.1,9.1,9.1,9.1h0
						c6.7,0,12.1,5.4,12.1,12.1v54.8h1.8V394c0-6.7,5.4-12.1,12.1-12.1h0c5,0,9.1-4.1,9.1-9.1v0
						C136.2,367.8,132.1,363.7,127.1,363.7z"/>
					<path id="XMLID_235_" class="st9" d="M47.4,363.7H21.4c-5,0-9.1,4.1-9.1,9.1v0c0,5,4.1,9.1,9.1,9.1h0c6.7,0,12.1,5.4,12.1,12.1
						v54.8h1.8V394c0-6.7,5.4-12.1,12.1-12.1h0c5,0,9.1-4.1,9.1-9.1v0C56.5,367.8,52.4,363.7,47.4,363.7z"/>
				</g>
				<g id="XMLID_238_">
					<path id="XMLID_292_" class="st11" d="M552,374.7h-22.6c-4.4,0-7.9,3.5-7.9,7.9v0c0,4.4,3.5,7.9,7.9,7.9l0,0
						c5.8,0,10.5,4.7,10.5,10.5v47.8h1.5V401c0-5.8,4.7-10.5,10.5-10.5h0c4.4,0,7.9-3.5,7.9-7.9v0
						C559.9,378.2,556.4,374.7,552,374.7z"/>
					<path id="XMLID_289_" class="st8" d="M548.6,343.2h-32.2c-6.2,0-11.3,5-11.3,11.3v0c0,6.2,5,11.3,11.3,11.3h0
						c8.3,0,15,6.7,15,15v68h2.2v-68c0-8.3,6.7-15,15-15l0,0c6.2,0,11.3-5,11.3-11.3v0C559.9,348.3,554.9,343.2,548.6,343.2z"/>
					<path id="XMLID_286_" class="st8" d="M385.8,322.9h-38.4c-7.4,0-13.4,6-13.4,13.4v0c0,7.4,6,13.4,13.4,13.4h0
						c9.9,0,17.9,8,17.9,17.9v81.2h2.6v-81.2c0-9.9,8-17.9,17.9-17.9h0c7.4,0,13.4-6,13.4-13.4v0
						C399.2,328.9,393.2,322.9,385.8,322.9z"/>
					<path id="XMLID_283_" class="st11" d="M594.8,364H569c-5,0-9.1,4.1-9.1,9.1v0c0,5,4.1,9.1,9.1,9.1l0,0
						c6.7,0,12.1,5.4,12.1,12.1v54.7h1.8v-54.7c0-6.7,5.4-12.1,12.1-12.1l0,0c5,0,9.1-4.1,9.1-9.1v0C603.9,368,599.8,364,594.8,364z
						"/>
					<path id="XMLID_280_" class="st11" d="M488.8,384.2h-19.7c-3.8,0-6.9,3.1-6.9,6.9l0,0c0,3.8,3.1,6.9,6.9,6.9h0
						c5.1,0,9.2,4.1,9.2,9.2v41.7h1.3v-41.7c0-5.1,4.1-9.2,9.2-9.2h0c3.8,0,6.9-3.1,6.9-6.9l0,0
						C495.7,387.3,492.6,384.2,488.8,384.2z"/>
					<path id="XMLID_277_" class="st8" d="M453.7,369.6h-24.1c-4.7,0-8.5,3.8-8.5,8.5v0c0,4.7,3.8,8.5,8.5,8.5h0
						c6.2,0,11.3,5,11.3,11.3v51h1.6v-51c0-6.2,5-11.3,11.3-11.3h0c4.7,0,8.5-3.8,8.5-8.5v0C462.2,373.4,458.4,369.6,453.7,369.6z"
						/>
					<path id="XMLID_271_" class="st9" d="M424.9,395.5c0-10.2-8.6-18.3-18.8-17.7c-8.8,0.6-16,7.8-16.5,16.6
						c-0.4,7.4,3.6,13.8,9.7,16.9c3.2,1.6,5.2,4.7,5.2,8.3v29.2h5.5v-27c0-4.5,2.4-8.7,6.3-11C421.5,407.7,424.9,402,424.9,395.5z"
						/>
					<path id="XMLID_268_" class="st9" d="M526.4,385.1c0-12.2-10.2-21.9-22.6-21.1c-10.6,0.7-19.1,9.3-19.8,19.8
						c-0.5,8.8,4.3,16.5,11.6,20.2c3.8,1.9,6.3,5.7,6.3,9.9v35h6.6v-32.4c0-5.4,2.8-10.4,7.5-13.2
						C522.2,399.6,526.4,392.8,526.4,385.1z"/>
					<path id="XMLID_260_" class="st9" d="M469.9,363.7h-25.9c-5,0-9.1,4.1-9.1,9.1v0c0,5,4.1,9.1,9.1,9.1h0
						c6.7,0,12.1,5.4,12.1,12.1v54.8h1.8V394c0-6.7,5.4-12.1,12.1-12.1l0,0c5,0,9.1-4.1,9.1-9.1v0
						C478.9,367.8,474.9,363.7,469.9,363.7z"/>
					<path id="XMLID_240_" class="st11" d="M390.2,363.7h-25.9c-5,0-9.1,4.1-9.1,9.1v0c0,5,4.1,9.1,9.1,9.1h0
						c6.7,0,12.1,5.4,12.1,12.1v54.8h1.8V394c0-6.7,5.4-12.1,12.1-12.1l0,0c5,0,9.1-4.1,9.1-9.1v0
						C399.2,367.8,395.2,363.7,390.2,363.7z"/>
				</g>
				<g id="XMLID_295_">
					<path id="XMLID_326_" class="st11" d="M663.9,374.7h22.6c4.4,0,7.9,3.5,7.9,7.9v0c0,4.4-3.5,7.9-7.9,7.9l0,0
						c-5.8,0-10.5,4.7-10.5,10.5v47.8h-1.5V401c0-5.8-4.7-10.5-10.5-10.5h0c-4.4,0-7.9-3.5-7.9-7.9v0
						C656,378.2,659.5,374.7,663.9,374.7z"/>
					<path id="XMLID_323_" class="st9" d="M667.2,343.2h32.2c6.2,0,11.3,5,11.3,11.3v0c0,6.2-5,11.3-11.3,11.3h0
						c-8.3,0-15,6.7-15,15v68h-2.2v-68c0-8.3-6.7-15-15-15h0c-6.2,0-11.3-5-11.3-11.3v0C656,348.3,661,343.2,667.2,343.2z"/>
					<path id="XMLID_320_" class="st8" d="M830.1,322.9h38.4c7.4,0,13.4,6,13.4,13.4v0c0,7.4-6,13.4-13.4,13.4h0
						c-9.9,0-17.9,8-17.9,17.9v81.2H848v-81.2c0-9.9-8-17.9-17.9-17.9h0c-7.4,0-13.4-6-13.4-13.4v0
						C816.6,328.9,822.7,322.9,830.1,322.9z"/>
					<path id="XMLID_317_" class="st8" d="M621.1,364h25.9c5,0,9.1,4.1,9.1,9.1v0c0,5-4.1,9.1-9.1,9.1h0c-6.7,0-12.1,5.4-12.1,12.1
						v54.7h-1.8v-54.7c0-6.7-5.4-12.1-12.1-12.1l0,0c-5,0-9.1-4.1-9.1-9.1v0C612,368,616.1,364,621.1,364z"/>
					<path id="XMLID_314_" class="st11" d="M727.1,384.2h19.7c3.8,0,6.9,3.1,6.9,6.9l0,0c0,3.8-3.1,6.9-6.9,6.9l0,0
						c-5.1,0-9.2,4.1-9.2,9.2v41.7h-1.3v-41.7c0-5.1-4.1-9.2-9.2-9.2l0,0c-3.8,0-6.9-3.1-6.9-6.9l0,0
						C720.2,387.3,723.3,384.2,727.1,384.2z"/>
					<path id="XMLID_311_" class="st11" d="M762.1,369.6h24.1c4.7,0,8.5,3.8,8.5,8.5v0c0,4.7-3.8,8.5-8.5,8.5l0,0
						c-6.2,0-11.3,5-11.3,11.3v51h-1.6v-51c0-6.2-5-11.3-11.3-11.3l0,0c-4.7,0-8.5-3.8-8.5-8.5v0
						C753.7,373.4,757.5,369.6,762.1,369.6z"/>
					<path id="XMLID_308_" class="st8" d="M569,370.4c0-15,12.6-27,27.8-26c13,0.8,23.5,11.4,24.3,24.4c0.6,10.8-5.3,20.3-14.3,24.8
						c-4.6,2.4-7.7,7-7.7,12.2v43H591V409c0-6.7-3.5-12.8-9.2-16.2C574.2,388.2,569,379.9,569,370.4z"/>
					<path id="XMLID_305_" class="st9" d="M790.9,395.5c0-10.2,8.6-18.3,18.8-17.7c8.8,0.6,16,7.8,16.5,16.6
						c0.4,7.4-3.6,13.8-9.7,16.9c-3.2,1.6-5.2,4.7-5.2,8.3v29.2h-5.5v-27c0-4.5-2.4-8.7-6.3-11C794.4,407.7,790.9,402,790.9,395.5z"
						/>
					<path id="XMLID_302_" class="st9" d="M689.5,385.1c0-12.2,10.2-21.9,22.6-21.1c10.6,0.7,19.1,9.3,19.8,19.8
						c0.5,8.8-4.3,16.5-11.6,20.2c-3.8,1.9-6.3,5.7-6.3,9.9v35h-6.6v-32.4c0-5.4-2.8-10.4-7.5-13.2
						C693.7,399.6,689.5,392.8,689.5,385.1z"/>
					<path id="XMLID_299_" class="st8" d="M746,363.7H772c5,0,9.1,4.1,9.1,9.1v0c0,5-4.1,9.1-9.1,9.1h0c-6.7,0-12.1,5.4-12.1,12.1
						v54.8h-1.8V394c0-6.7-5.4-12.1-12.1-12.1l0,0c-5,0-9.1-4.1-9.1-9.1v0C736.9,367.8,741,363.7,746,363.7z"/>
					<path id="XMLID_296_" class="st11" d="M825.7,363.7h25.9c5,0,9.1,4.1,9.1,9.1v0c0,5-4.1,9.1-9.1,9.1h0
						c-6.7,0-12.1,5.4-12.1,12.1v54.8h-1.8V394c0-6.7-5.4-12.1-12.1-12.1l0,0c-5,0-9.1-4.1-9.1-9.1v0
						C816.6,367.8,820.7,363.7,825.7,363.7z"/>
				</g>
				<path id="XMLID_274_" class="st9" d="M646.8,370.4c0-15-12.6-27-27.8-26c-13,0.8-23.5,11.4-24.3,24.4
					c-0.6,10.8,5.3,20.3,14.3,24.8c4.6,2.4,7.7,7,7.7,12.2v43h8.1V409c0-6.7,3.5-12.8,9.2-16.2C641.7,388.2,646.8,379.9,646.8,370.4
					z"/>
			</g>
			<g id="XMLID_298_">
				<g id="XMLID_190_">
					<path id="XMLID_78_" class="st12" d="M776.4,236.2c-1.6,0-3.1,0.3-4.6,0.8v-11.5c0-16-13-29-29-29h0c-13.4,0-24.7,9.2-28,21.6
						c-3.7-2.9-8.4-4.6-13.5-4.6c-11.6,0-21.1,9-22,20.4c-1.4-0.5-2.9-0.7-4.5-0.7c-1,0-1.9,0.1-2.9,0.3v-7.9c0-16-13-29-29-29h0
						c-16,0-29,13-29,29v11.9c-1.8-0.8-3.7-1.3-5.8-1.3h0c-7.5,0-13.6,5.9-14,13.2h196C789.9,242,783.8,236.2,776.4,236.2z"/>
					<g id="XMLID_189_">
						<path id="XMLID_62_" class="st13" d="M665.9,285.6v12.2c0,5.5-4.5,9.9-9.9,9.9v-22.1h-2.7v64.6c0,7.2-4.7,13.4-11.3,15.5
							V248.1H632V273c-3-1.7-5-4.9-5-8.6v-18.6h-2.7v18.6c0,5.2,3.2,9.7,7.7,11.6v173h9.9v-80.6c8-2.2,14-9.5,14-18.3v-39.7
							c7,0,12.6-5.7,12.6-12.6v-12.2H665.9z"/>
						<rect id="XMLID_178_" x="637" y="245.8" class="st14" width="1.5" height="203.3"/>
						<rect id="XMLID_183_" x="633.6" y="245.8" class="st14" width="1.5" height="203.3"/>
					</g>
					<g id="XMLID_156_">
						<path id="XMLID_34_" class="st14" d="M707.3,245.8v38.3c0,3.7-2.3,6.9-5.6,8.2v-46.5H695v96.1c-5.3-7.1-8.1-15.7-8.1-24.7
							v-71.4h-2.2v71.4c0,10.5,3.6,20.4,10.3,28.3v103.6h6.7V294.7c4.5-1.4,7.8-5.6,7.8-10.6v-38.3H707.3z"/>
						<rect id="XMLID_186_" x="698.4" y="245.8" class="st15" width="1.5" height="203.3"/>
					</g>
					<path id="XMLID_108_" class="st16" d="M683.2,291.1c0-2.9-2.4-5.3-5.3-5.3c-0.6,0-1.2,0.1-1.7,0.3v-4.3c0-6-4.9-10.9-10.9-10.9
						h0c-5.1,0-9.3,3.5-10.6,8.2c-1.4-1.1-3.2-1.7-5.1-1.7h0c-4.4,0-8,3.4-8.3,7.7c-0.5-0.2-1.1-0.3-1.7-0.3l0,0
						c-2.9,0-5.3,2.4-5.3,5.3v1.2L683.2,291.1L683.2,291.1z"/>
					<path id="XMLID_75_" class="st17" d="M692.3,251.7c0-4.1-3.3-7.4-7.4-7.4c-0.8,0-1.7,0.1-2.4,0.4v-6.1
						c0-8.5-6.9-15.3-15.3-15.3h0c-7.1,0-13.1,4.9-14.8,11.4c-2-1.5-4.5-2.4-7.1-2.4l0,0c-6.1,0-11.2,4.8-11.6,10.8
						c-0.7-0.3-1.5-0.4-2.4-0.4l0,0c-4.1,0-7.4,3.3-7.4,7.4v1.7L692.3,251.7L692.3,251.7z"/>
					<path id="XMLID_109_" class="st12" d="M628.6,237.4c0-4.1-3.3-7.4-7.4-7.4c-0.8,0-1.7,0.1-2.4,0.4v-6.1
						c0-8.5-6.9-15.3-15.3-15.3h0c-7.1,0-13.1,4.9-14.8,11.4c-2-1.5-4.5-2.4-7.1-2.4l0,0c-6.1,0-11.2,4.8-11.6,10.8
						c-0.7-0.3-1.5-0.4-2.4-0.4l0,0c-4.1,0-7.4,3.3-7.4,7.4v1.7L628.6,237.4L628.6,237.4z"/>
					<path id="XMLID_105_" class="st16" d="M750.3,262.6c0-4.1-3.3-7.4-7.4-7.4c-0.8,0-1.7,0.1-2.4,0.4v-6.1
						c0-8.5-6.9-15.3-15.3-15.3l0,0c-7.1,0-13.1,4.9-14.8,11.4c-2-1.5-4.5-2.4-7.1-2.4h0c-6.1,0-11.2,4.8-11.6,10.8
						c-0.7-0.3-1.5-0.4-2.4-0.4l0,0c-4.1,0-7.4,3.3-7.4,7.4v1.7L750.3,262.6L750.3,262.6z"/>
					<path id="XMLID_59_" class="st17" d="M637.7,255.5c0-4.1-3.3-7.4-7.4-7.4c-0.8,0-1.7,0.1-2.4,0.4v-6.1
						c0-8.5-6.9-15.3-15.3-15.3l0,0c-7.1,0-13.1,4.9-14.8,11.4c-2-1.5-4.5-2.4-7.1-2.4h0c-6.1,0-11.2,4.8-11.6,10.8
						c-0.7-0.3-1.5-0.4-2.4-0.4l0,0c-4.1,0-7.4,3.3-7.4,7.4v1.7L637.7,255.5L637.7,255.5z"/>
					<path id="XMLID_71_" class="st16" d="M691,258.8c-0.8,0-1.7,0.1-2.4,0.4v-6.1c0-8.5-6.9-15.3-15.3-15.3h0
						c-7.1,0-13.1,4.9-14.8,11.4c-2-1.5-4.5-2.4-7.1-2.4c-6.1,0-11.2,4.8-11.6,10.8c-0.7-0.3-1.5-0.4-2.4-0.4c-0.5,0-1,0.1-1.5,0.2
						v-4.2c0-8.5-6.9-15.3-15.3-15.3l0,0c-8.5,0-15.3,6.9-15.3,15.3v6.3c-0.9-0.4-2-0.7-3.1-0.7h0c-4,0-7.2,3.1-7.4,7h103.8
						C698.2,261.9,694.9,258.8,691,258.8z"/>
				</g>
				<g id="XMLID_207_">
					<path id="XMLID_60_" class="st15" d="M32.2,245.8v38.3c0,3.7-2.3,6.9-5.6,8.2v-46.5H20v96.1c-5.3-7.1-8.1-15.7-8.1-24.7v-71.4
						H9.7v71.4c0,10.5,3.6,20.4,10.3,28.3v103.6h6.7V294.7c4.5-1.4,7.8-5.6,7.8-10.6v-38.3H32.2z"/>
					<path id="XMLID_58_" class="st15" d="M57.4,245.8v95c0,2.9-1.7,5.4-4.1,6.6V245.8h-6.7v203.3h6.7v-99.2c3.7-1.4,6.3-4.9,6.3-9
						v-95H57.4z"/>
					<rect id="XMLID_155_" x="48.8" y="245.8" class="st18" width="1.5" height="203.3"/>
					<rect id="XMLID_162_" x="25.1" y="245.8" class="st18" width="1.5" height="203.3"/>
					<rect id="XMLID_167_" x="21.3" y="245.8" class="st18" width="1.5" height="203.3"/>
					<g id="XMLID_224_">
						<path id="XMLID_221_" class="st12" d="M99.7,245.2c-1,0-2.1,0.2-3,0.5v-7.5c0-10.5-8.5-19-19-19h0c-8.8,0-16.2,6-18.3,14.1
							c-2.4-1.9-5.5-3-8.8-3c-7.6,0-13.8,5.9-14.4,13.3c-0.9-0.3-1.9-0.5-2.9-0.5c-0.6,0-1.3,0.1-1.9,0.2v-5.2c0-10.5-8.5-19-19-19
							h0c-10.5,0-19,8.5-19,19v7.8c-1.2-0.5-2.4-0.8-3.8-0.8h0c-4.9,0-8.9,3.8-9.1,8.7h128.2C108.6,249,104.6,245.2,99.7,245.2z"/>
						<path id="XMLID_218_" class="st17" d="M57.4,253.9c0-3.2-2.6-5.8-5.8-5.8c-0.7,0-1.3,0.1-1.9,0.3v-4.8c0-6.6-5.4-12-12-12h0
							c-5.6,0-10.3,3.8-11.6,9c-1.5-1.2-3.5-1.9-5.6-1.9h0c-4.8,0-8.8,3.7-9.1,8.5c-0.6-0.2-1.2-0.3-1.9-0.3h0
							c-3.2,0-5.8,2.6-5.8,5.8v1.3L57.4,253.9L57.4,253.9z"/>
						<path id="XMLID_215_" class="st12" d="M7.5,242.7c0-3.2-2.6-5.8-5.8-5.8c-0.7,0-1.3,0.1-1.9,0.3v-4.8c0-6.6-5.4-12-12-12h0
							c-5.6,0-10.3,3.8-11.6,9c-1.5-1.2-3.5-1.9-5.6-1.9h0c-4.8,0-8.8,3.7-9.1,8.5c-0.6-0.2-1.2-0.3-1.9-0.3h0
							c-3.2,0-5.8,2.6-5.8,5.8v1.3L7.5,242.7L7.5,242.7z"/>
						<path id="XMLID_212_" class="st17" d="M82.7,262.4c0-2.7-2.2-4.8-4.8-4.8c-0.6,0-1.1,0.1-1.6,0.3v-4c0-5.5-4.5-10-10-10h0
							c-4.7,0-8.6,3.2-9.7,7.5c-1.3-1-2.9-1.6-4.7-1.6h0c-4,0-7.3,3.1-7.6,7.1c-0.5-0.2-1-0.3-1.6-0.3h0c-2.7,0-4.8,2.2-4.8,4.8v1.1
							L82.7,262.4L82.7,262.4z"/>
						<path id="XMLID_209_" class="st17" d="M14.6,256.9c0-3.2-2.6-5.8-5.8-5.8c-0.7,0-1.3,0.1-1.9,0.3v-4.8c0-6.6-5.4-12-12-12h0
							c-5.6,0-10.3,3.8-11.6,9c-1.5-1.2-3.5-1.9-5.6-1.9h0c-4.8,0-8.8,3.7-9.1,8.5c-0.6-0.2-1.2-0.3-1.9-0.3h0
							c-3.2,0-5.8,2.6-5.8,5.8v1.3L14.6,256.9L14.6,256.9z"/>
						<path id="XMLID_206_" class="st16" d="M56.4,259.5c-0.7,0-1.3,0.1-1.9,0.3V255c0-6.6-5.4-12-12-12h0c-5.6,0-10.3,3.8-11.6,9
							c-1.5-1.2-3.5-1.9-5.6-1.9c-4.8,0-8.8,3.7-9.1,8.5c-0.6-0.2-1.2-0.3-1.9-0.3c-0.4,0-0.8,0-1.2,0.1V255c0-6.6-5.4-12-12-12h0
							c-6.6,0-12,5.4-12,12v5c-0.7-0.3-1.5-0.5-2.4-0.5h0c-3.1,0-5.6,2.4-5.8,5.5h81.4C62,261.9,59.5,259.5,56.4,259.5z"/>
					</g>
				</g>
				<g id="XMLID_64_">
					<path id="XMLID_364_" class="st14" d="M779.1,245.8v38.3c0,3.7-2.3,6.9-5.6,8.2v-46.5h-6.7v96.1c-5.3-7.1-8.1-15.7-8.1-24.7
						v-71.4h-2.2v71.4c0,10.5,3.6,20.4,10.3,28.3v103.6h6.7V294.7c4.5-1.4,7.8-5.6,7.8-10.6v-38.3H779.1z"/>
					<path id="XMLID_363_" class="st14" d="M804.3,245.8v95c0,2.9-1.7,5.4-4.1,6.6V245.8h-6.7v203.3h6.7v-99.2
						c3.7-1.4,6.3-4.9,6.3-9v-95H804.3z"/>
					<rect id="XMLID_360_" x="795.7" y="245.8" class="st15" width="1.5" height="203.3"/>
					<rect id="XMLID_357_" x="772" y="245.8" class="st15" width="1.5" height="203.3"/>
					<rect id="XMLID_354_" x="768.2" y="245.8" class="st15" width="1.5" height="203.3"/>
					<g id="XMLID_65_">
						<path id="XMLID_351_" class="st12" d="M870.3,241.7c-1.3,0-2.5,0.2-3.6,0.6v-9c0-12.5-10.2-22.7-22.7-22.7h0
							c-10.5,0-19.4,7.2-22,16.9c-2.9-2.3-6.6-3.6-10.6-3.6c-9.1,0-16.6,7-17.2,16c-1.1-0.4-2.3-0.6-3.5-0.6c-0.8,0-1.5,0.1-2.2,0.2
							v-6.2c0-12.5-10.2-22.7-22.7-22.7l0,0c-12.5,0-22.7,10.2-22.7,22.7v9.4c-1.4-0.6-2.9-1-4.5-1h0c-5.9,0-10.6,4.6-10.9,10.4
							h153.7C880.9,246.3,876.1,241.7,870.3,241.7z"/>
						<path id="XMLID_348_" class="st17" d="M804.4,253.9c0-3.2-2.6-5.8-5.8-5.8c-0.7,0-1.3,0.1-1.9,0.3v-4.8c0-6.6-5.4-12-12-12
							l0,0c-5.6,0-10.3,3.8-11.6,9c-1.5-1.2-3.5-1.9-5.6-1.9h0c-4.8,0-8.8,3.7-9.1,8.5c-0.6-0.2-1.2-0.3-1.9-0.3h0
							c-3.2,0-5.8,2.6-5.8,5.8v1.3L804.4,253.9L804.4,253.9z"/>
						<path id="XMLID_342_" class="st16" d="M849.9,262.4c0-3.2-2.6-5.8-5.8-5.8c-0.7,0-1.3,0.1-1.9,0.3v-4.8c0-6.6-5.4-12-12-12
							l0,0c-5.6,0-10.3,3.8-11.6,9c-1.5-1.2-3.5-1.9-5.6-1.9l0,0c-4.8,0-8.8,3.7-9.1,8.5c-0.6-0.2-1.2-0.3-1.9-0.3l0,0
							c-3.2,0-5.8,2.6-5.8,5.8v1.3L849.9,262.4L849.9,262.4z"/>
						<path id="XMLID_72_" class="st17" d="M803.3,259.5c-0.7,0-1.3,0.1-1.9,0.3V255c0-6.6-5.4-12-12-12l0,0c-5.6,0-10.3,3.8-11.6,9
							c-1.5-1.2-3.5-1.9-5.6-1.9c-4.8,0-8.8,3.7-9.1,8.5c-0.6-0.2-1.2-0.3-1.9-0.3c-0.4,0-0.8,0-1.2,0.1V255c0-6.6-5.4-12-12-12l0,0
							c-6.6,0-12,5.4-12,12v5c-0.7-0.3-1.5-0.5-2.4-0.5l0,0c-3.1,0-5.6,2.4-5.8,5.5h81.4C809,261.9,806.4,259.5,803.3,259.5z"/>
					</g>
				</g>
				<g id="XMLID_35_">
					<path id="XMLID_68_" class="st19" d="M224.2,308.1v43.7c-4.1-2.2-6.8-6.5-6.8-11.5v-32.2H213v32.2c0,7.5,4.7,13.8,11.2,16.4v19
						c-12.6-2.9-22.1-14.2-22.1-27.7v-67.6h-4.4V348c0,16,11.4,29.3,26.6,32.2v68.9h12.6v-141H224.2z"/>
					<path id="XMLID_144_" class="st12" d="M290.9,294.1c-1.1,0-2.1,0.2-3.1,0.5v-7.8c0-10.9-8.8-19.8-19.8-19.8h0
						c-9.2,0-16.9,6.2-19.1,14.7c-2.5-2-5.7-3.2-9.2-3.2c-7.9,0-14.4,6.1-15,13.9c-1-0.3-2-0.5-3.1-0.5c-0.7,0-1.3,0.1-1.9,0.2v-5.4
						c0-10.9-8.8-19.8-19.8-19.8h0c-10.9,0-19.8,8.8-19.8,19.8v8.2c-1.2-0.5-2.5-0.9-4-0.9h0c-5.1,0-9.3,4-9.5,9h133.7
						C300.2,298.1,296,294.1,290.9,294.1z"/>
					<path id="XMLID_135_" class="st12" d="M248.2,306.1c-0.8,0-1.7,0.1-2.4,0.4v-6.1c0-8.5-6.9-15.3-15.3-15.3h0
						c-7.1,0-13.1,4.9-14.8,11.4c-2-1.5-4.5-2.4-7.1-2.4c-6.1,0-11.2,4.8-11.6,10.8c-0.7-0.3-1.5-0.4-2.4-0.4c-0.5,0-1,0.1-1.5,0.2
						v-4.2c0-8.5-6.9-15.3-15.3-15.3h0c-8.5,0-15.3,6.9-15.3,15.3v6.3c-0.9-0.4-2-0.7-3.1-0.7h0c-4,0-7.2,3.1-7.4,7h103.8
						C255.4,309.2,252.1,306.1,248.2,306.1z"/>
					<path id="XMLID_132_" class="st20" d="M269.9,312.2c-0.8,0-1.7,0.1-2.4,0.4v-6.1c0-8.5-6.9-15.3-15.3-15.3h0
						c-7.1,0-13.1,4.9-14.8,11.4c-2-1.5-4.5-2.4-7.1-2.4c-6.1,0-11.2,4.8-11.6,10.8c-0.7-0.3-1.5-0.4-2.4-0.4c-0.5,0-1,0.1-1.5,0.2
						v-4.2c0-8.5-6.9-15.3-15.3-15.3h0c-8.5,0-15.3,6.9-15.3,15.3v6.3c-0.9-0.4-2-0.7-3.1-0.7h0c-4,0-7.2,3.1-7.4,7h103.8
						C277.1,315.3,273.9,312.2,269.9,312.2z"/>
				</g>
				<g id="XMLID_196_">
					<g id="XMLID_191_">
						<path id="XMLID_66_" class="st21" d="M520.8,348.6v14c0,10.5,8.2,19,18.5,19.6v-4.9c0-2.1-1.7-3.8-3.8-3.8
							c-3.5,0-6.4-2.9-6.4-6.4v-19.7h2.6v19.7c0,2.1,1.7,3.8,3.8,3.8c3.5,0,6.4,2.9,6.4,6.4v9c0,3.6,2.3,6.7,5.5,7.9v-45.6h0.2v-3.7
							c0-1.2-1-2.2-2.2-2.2c-2.7,0-4.9-2.2-4.9-4.9v-4.6h2.6v4.6c0,1.2,1,2.2,2.2,2.2c2.7,0,4.9,2.2,4.9,4.9v3.7h5.1v-9.9
							c0-2.1,1.7-3.9,3.9-3.9c0.7,0,1.2-0.5,1.2-1.2v-3.3h2.6v3.3c0,2.1-1.7,3.9-3.9,3.9c-0.7,0-1.2,0.5-1.2,1.2v22.9h0v42.4
							c2.3-1.6,3.8-4.3,3.8-7.3v-48.1h2.6v48.1c0,4.5-2.6,8.5-6.4,10.4v41.9h-10.6v-52.1c-4.7-1.3-8.2-5.6-8.2-10.7v-1.5
							c-11.8-0.6-21.2-10.3-21.2-22.3v-14H520.8z"/>
						<rect id="XMLID_198_" x="556" y="355.4" class="st15" width="1.8" height="93.6"/>
						<rect id="XMLID_192_" x="551.1" y="355.4" class="st15" width="1.8" height="93.6"/>
					</g>
					<g id="XMLID_195_">
						<path id="XMLID_102_" class="st22" d="M615.3,343.2c0-6.4-5.2-11.7-11.7-11.7l0,0c-2.1,0-4.1,0.6-5.8,1.6
							c-1.5-6.9-7.6-12-15-12c-8.5,0-15.3,6.9-15.3,15.3v1.1c-1-0.5-2.1-0.8-3.4-0.8c-1.3,0-2.5,0.3-3.6,0.9v-1.3
							c0-8.5-6.9-15.3-15.3-15.3l0,0c-7.1,0-13.1,4.9-14.9,11.5c-1.7-6.6-7.7-11.5-14.9-11.5c-8.5,0-15.3,6.9-15.3,15.3v1.4
							c-1.1-0.7-2.4-1.1-3.9-1.1h0c-4.1,0-7.4,3.3-7.4,7.4v0.5h126.4V343.2z"/>
						<path id="XMLID_99_" class="st23" d="M591.2,350.8c0-4.1-3.3-7.4-7.4-7.4c-0.8,0-1.7,0.1-2.4,0.4v-6.1
							c0-8.5-6.9-15.3-15.3-15.3l0,0c-7.1,0-13.1,4.9-14.8,11.4c-2-1.5-4.5-2.4-7.1-2.4h0c-6.1,0-11.2,4.8-11.6,10.8
							c-0.7-0.3-1.5-0.4-2.4-0.4l0,0c-4.1,0-7.4,3.3-7.4,7.4v1.7L591.2,350.8L591.2,350.8z"/>
						<path id="XMLID_94_" class="st24" d="M572.1,358.9c0-4.1-3.3-7.4-7.4-7.4c-0.8,0-1.7,0.1-2.4,0.4v-6.1
							c0-8.5-6.9-15.3-15.3-15.3h0c-7.1,0-13.1,4.9-14.8,11.4c-2-1.5-4.5-2.4-7.1-2.4l0,0c-6.1,0-11.2,4.8-11.6,10.8
							c-0.7-0.3-1.5-0.4-2.4-0.4h0c-4.1,0-7.4,3.3-7.4,7.4v1.7L572.1,358.9L572.1,358.9z"/>
					</g>
				</g>
				<g id="XMLID_205_">
					<g id="XMLID_204_">
						<g id="XMLID_197_">
							<path id="XMLID_36_" class="st13" d="M264.5,245.8v59.2c0,1.7-1.4,3.1-3.1,3.1l0,0c-1.7,0-3.1-1.4-3.1-3.1v-59.2h-13.3v58.9
								c0,1.9-1.5,3.4-3.4,3.4h0c-1.9,0-3.4-1.5-3.4-3.4v-58.9h-4.6v62.3v3v138h35.5v-138v-3v-62.3H264.5z"/>
							<rect id="XMLID_145_" x="251.4" y="256.2" class="st25" width="3.6" height="192.8"/>
							<rect id="XMLID_147_" x="236.6" y="256.2" class="st25" width="1.8" height="192.8"/>
						</g>
						<g id="XMLID_199_">
							<path id="XMLID_33_" class="st21" d="M215,280.4v23.5c0,17.6-13.8,32-31.1,32.9v-8.2c0-3.5,2.8-6.3,6.3-6.3
								c5.9,0,10.7-4.8,10.7-10.7v-33h-4.4v33c0,3.5-2.8,6.3-6.3,6.3c-5.9,0-10.7,4.8-10.7,10.7v15.2c0,6.1-3.9,11.2-9.3,13.2v-76.6
								h-0.4v-6.3c0-2,1.7-3.7,3.7-3.7c4.5,0,8.2-3.7,8.2-8.2v-7.7h-4.4v7.7c0,2-1.7,3.7-3.7,3.7c-4.5,0-8.2,3.7-8.2,8.2v6.3h-8.5
								v-16.6c0-3.6-2.9-6.5-6.5-6.5c-1.1,0-2-0.9-2-2v-5.6h-4.4v5.6c0,3.6,2.9,6.5,6.5,6.5c1.1,0,2,0.9,2,2v38.5h0v71.2
								c-3.8-2.8-6.3-7.2-6.3-12.3v-80.8h-4.4v80.8c0,7.6,4.4,14.3,10.8,17.5v70.4h17.8v-87.5c7.9-2.1,13.7-9.3,13.7-17.9v-2.5
								c19.8-1,35.6-17.4,35.6-37.4v-23.5H215z"/>
							<g id="XMLID_149_">
								<rect id="XMLID_150_" x="161.2" y="280.4" class="st15" width="3.6" height="168.7"/>
								<rect id="XMLID_160_" x="155.5" y="278.6" class="st15" width="1.8" height="170.5"/>
							</g>
						</g>
						<g id="XMLID_201_">
							<path id="XMLID_31_" class="st21" d="M353.1,280.4v23.5c0,17.6-13.8,32-31.1,32.9v-8.2c0-3.5,2.8-6.3,6.3-6.3
								c5.9,0,10.7-4.8,10.7-10.7v-33h-4.4v33c0,3.5-2.8,6.3-6.3,6.3c-5.9,0-10.7,4.8-10.7,10.7v15.2c0,6.1-3.9,11.2-9.3,13.2v-76.6
								h-0.4v-6.3c0-2,1.7-3.7,3.7-3.7c4.5,0,8.2-3.7,8.2-8.2v-7.7h-4.4v7.7c0,2-1.7,3.7-3.7,3.7c-4.5,0-8.2,3.7-8.2,8.2v6.3h-8.5
								v-16.6c0-3.6-2.9-6.5-6.5-6.5c-1.1,0-2-0.9-2-2v-5.6h-4.4v5.6c0,3.6,2.9,6.5,6.5,6.5c1.1,0,2,0.9,2,2v38.5h0v71.2
								c-3.8-2.8-6.3-7.2-6.3-12.3v-80.8h-4.4v80.8c0,7.6,4.4,14.3,10.8,17.5v70.4h17.8v-87.5c7.9-2.1,13.7-9.3,13.7-17.9v-2.5
								c19.8-1,35.6-17.4,35.6-37.4v-23.5H353.1z"/>
							<g id="XMLID_146_">
								<path id="XMLID_153_" class="st15" d="M304.9,449h1.8V267.5c-1.5,0.6-1.8,1.8-1.8,1.8V449z"/>
								<rect id="XMLID_148_" x="292.3" y="265.7" class="st15" width="1.8" height="183.3"/>
								<rect id="XMLID_151_" x="297.2" y="280.4" class="st15" width="3.8" height="168.7"/>
							</g>
						</g>
					</g>
					<g id="XMLID_203_">
						<path id="XMLID_91_" class="st26" d="M383.8,285c0-4.1-3.3-7.4-7.4-7.4c-0.8,0-1.7,0.1-2.4,0.4v-6.1c0-8.5-6.9-15.3-15.3-15.3
							h0c-7.1,0-13.1,4.9-14.8,11.4c-2-1.5-4.5-2.4-7.1-2.4h0c-6.1,0-11.2,4.8-11.6,10.8c-0.7-0.3-1.5-0.4-2.4-0.4l0,0
							c-4.1,0-7.4,3.3-7.4,7.4v1.7L383.8,285L383.8,285z"/>
						<path id="XMLID_67_" class="st27" d="M326.9,248.2c0-7.2-5.8-13-13-13c-1.5,0-2.9,0.3-4.3,0.7v-10.7c0-14.9-12.1-27-27-27h0
							c-12.6,0-23.1,8.6-26.2,20.1c-3.5-2.7-7.8-4.3-12.6-4.3h0c-10.8,0-19.7,8.4-20.5,19c-1.3-0.4-2.7-0.7-4.2-0.7h0
							c-7.2,0-13,5.8-13,13v3h120.8V248.2z"/>
						<path id="XMLID_37_" class="st27" d="M240.4,251.3c0-4.1-3.3-7.4-7.4-7.4c-0.8,0-1.7,0.1-2.4,0.4v-6.1
							c0-8.5-6.9-15.3-15.3-15.3h0c-7.1,0-13.1,4.9-14.8,11.4c-2-1.5-4.5-2.4-7.1-2.4h0c-6.1,0-11.2,4.8-11.6,10.8
							c-0.7-0.3-1.5-0.4-2.4-0.4h0c-4.1,0-7.4,3.3-7.4,7.4v1.7L240.4,251.3L240.4,251.3z"/>
						<path id="XMLID_120_" class="st27" d="M189.8,249.8c0-4.1-3.3-7.4-7.4-7.4c-0.8,0-1.7,0.1-2.4,0.4v-6.1
							c0-8.5-6.9-15.3-15.3-15.3h0c-7.1,0-13.1,4.9-14.8,11.4c-2-1.5-4.5-2.4-7.1-2.4h0c-6.1,0-11.2,4.8-11.6,10.8
							c-0.7-0.3-1.5-0.4-2.4-0.4h0c-4.1,0-7.4,3.3-7.4,7.4v1.7L189.8,249.8L189.8,249.8z"/>
						<path id="XMLID_77_" class="st27" d="M355.8,255.5c0-4.1-3.3-7.4-7.4-7.4c-0.8,0-1.7,0.1-2.4,0.4v-6.1
							c0-8.5-6.9-15.3-15.3-15.3h0c-7.1,0-13.1,4.9-14.8,11.4c-2-1.5-4.5-2.4-7.1-2.4h0c-6.1,0-11.2,4.8-11.6,10.8
							c-0.7-0.3-1.5-0.4-2.4-0.4l0,0c-4.1,0-7.4,3.3-7.4,7.4v1.7L355.8,255.5L355.8,255.5z"/>
						<path id="XMLID_74_" class="st28" d="M301.7,286.4c0-2.6-2.1-4.8-4.8-4.8c-0.5,0-1.1,0.1-1.6,0.3V278c0-5.5-4.4-9.9-9.9-9.9h0
							c-4.6,0-8.4,3.1-9.5,7.4c-1.3-1-2.9-1.6-4.6-1.6h0c-4,0-7.2,3.1-7.5,6.9c-0.5-0.2-1-0.3-1.5-0.3l0,0c-2.6,0-4.8,2.1-4.8,4.8
							v1.1L301.7,286.4L301.7,286.4z"/>
						<path id="XMLID_69_" class="st29" d="M326.8,258.7c0-6.4-5.2-11.7-11.7-11.7h0c-2.1,0-4.1,0.6-5.8,1.6c-1.5-6.9-7.6-12-15-12
							c-8.5,0-15.3,6.9-15.3,15.3v1.1c-1-0.5-2.1-0.8-3.4-0.8c-1.3,0-2.5,0.3-3.6,0.9v-1.3c0-8.5-6.9-15.3-15.3-15.3h0
							c-7.1,0-13.1,4.9-14.9,11.5c-1.7-6.6-7.7-11.5-14.9-11.5c-8.5,0-15.3,6.9-15.3,15.3v1.4c-1.1-0.7-2.4-1.1-3.9-1.1h0
							c-4.1,0-7.4,3.3-7.4,7.4v0.5h126.4V258.7z"/>
						<path id="XMLID_41_" class="st27" d="M200.4,256.2c0-6.4-5.2-11.7-11.7-11.7h0c-2.1,0-4.1,0.6-5.8,1.6c-1.5-6.9-7.6-12-15-12
							c-8.5,0-15.3,6.9-15.3,15.3v1.1c-1-0.5-2.1-0.8-3.4-0.8c-1.3,0-2.5,0.3-3.6,0.9v-1.3c0-8.5-6.9-15.3-15.3-15.3h0
							c-7.1,0-13.1,4.9-14.9,11.5c-1.7-6.6-7.7-11.5-14.9-11.5c-8.5,0-15.3,6.9-15.3,15.3v1.4c-1.1-0.7-2.4-1.1-3.9-1.1h0
							c-4.1,0-7.4,3.3-7.4,7.4v0.5h126.4V256.2z"/>
						<path id="XMLID_63_" class="st29" d="M299.8,256.2c-1.3,0-2.5,0.3-3.7,0.7V254c0-10.1-8.2-18.4-18.4-18.4h0
							c-10.1,0-18.4,8.2-18.4,18.4v3.2c-1.3-0.6-2.8-1-4.4-1h0c-5.3,0-9.7,4.2-9.9,9.5h64.6C309.5,260.4,305.1,256.2,299.8,256.2z"
							/>
						<path id="XMLID_80_" class="st28" d="M245.1,282.3c0-4.1-3.3-7.4-7.4-7.4c-0.8,0-1.7,0.1-2.4,0.4v-6.1
							c0-8.5-6.9-15.3-15.3-15.3h0c-7.1,0-13.1,4.9-14.8,11.4c-2-1.5-4.5-2.4-7.1-2.4h0c-6.1,0-11.2,4.8-11.6,10.8
							c-0.7-0.3-1.5-0.4-2.4-0.4h0c-4.1,0-7.4,3.3-7.4,7.4v1.7L245.1,282.3L245.1,282.3z"/>
						<path id="XMLID_129_" class="st29" d="M163.4,266.1c0-3.9-3.2-7.1-7.1-7.1c-0.8,0-1.6,0.1-2.3,0.4v-5.8
							c0-8.1-6.6-14.6-14.6-14.6h0c-6.8,0-12.5,4.6-14.2,10.9c-1.9-1.5-4.2-2.3-6.8-2.3h0c-5.9,0-10.7,4.5-11.1,10.3
							c-0.7-0.2-1.5-0.4-2.3-0.4h0c-3.9,0-7.1,3.2-7.1,7.1v1.6L163.4,266.1L163.4,266.1z"/>
						<path id="XMLID_126_" class="st28" d="M164.5,281.4c0-3-2.5-5.5-5.5-5.5c-0.6,0-1.2,0.1-1.8,0.3v-4.5
							c0-6.3-5.1-11.4-11.4-11.4h0c-5.3,0-9.8,3.6-11.1,8.5c-1.5-1.1-3.3-1.8-5.3-1.8h0c-4.6,0-8.3,3.5-8.7,8
							c-0.6-0.2-1.1-0.3-1.8-0.3h0c-3,0-5.5,2.5-5.5,5.5v1.3L164.5,281.4L164.5,281.4z"/>
					</g>
				</g>
				<g id="XMLID_365_">
					<g id="XMLID_412_">
						<g id="XMLID_425_">
							<path id="XMLID_433_" class="st13" d="M436.4,310.8v19.3c0,14.4,11.3,26.2,25.5,27v-6.7c0-2.8-2.3-5.2-5.2-5.2
								c-4.9,0-8.8-4-8.8-8.8v-27.1h3.6v27.1c0,2.8,2.3,5.2,5.2,5.2c4.9,0,8.8,4,8.8,8.8v12.5c0,5,3.2,9.2,7.6,10.8v-62.8h0.3v-5.1
								c0-1.7-1.4-3-3-3c-3.7,0-6.7-3-6.7-6.7v-6.3h3.6v6.3c0,1.7,1.4,3,3,3c3.7,0,6.7,3,6.7,6.7v5.1h7v-13.6c0-2.9,2.4-5.3,5.3-5.3
								c0.9,0,1.7-0.8,1.7-1.7v-4.6h3.6v4.6c0,2.9-2.4,5.3-5.3,5.3c-0.9,0-1.7,0.8-1.7,1.7v31.6h0v58.4c3.1-2.3,5.2-5.9,5.2-10.1
								v-66.3h3.6v66.3c0,6.3-3.6,11.7-8.8,14.4v57.7h-14.6v-71.7c-6.5-1.7-11.2-7.7-11.2-14.7v-2.1c-16.2-0.8-29.2-14.2-29.2-30.6
								v-19.3H436.4z"/>
							<g id="XMLID_426_">
								<rect id="XMLID_430_" x="477.5" y="310.8" class="st25" width="3" height="138.2"/>
								<rect id="XMLID_427_" x="483.7" y="309.3" class="st25" width="1.5" height="139.7"/>
							</g>
						</g>
						<g id="XMLID_413_">
							<path id="XMLID_424_" class="st15" d="M323.3,310.8v19.3c0,14.4,11.3,26.2,25.5,27v-6.7c0-2.8-2.3-5.2-5.2-5.2
								c-4.9,0-8.8-4-8.8-8.8v-27.1h3.6v27.1c0,2.8,2.3,5.2,5.2,5.2c4.9,0,8.8,4,8.8,8.8v12.5c0,5,3.2,9.2,7.6,10.8v-62.8h0.3v-5.1
								c0-1.7-1.4-3-3-3c-3.7,0-6.7-3-6.7-6.7v-6.3h3.6v6.3c0,1.7,1.4,3,3,3c3.7,0,6.7,3,6.7,6.7v5.1h7v-13.6c0-2.9,2.4-5.3,5.3-5.3
								c0.9,0,1.7-0.8,1.7-1.7v-4.6h3.6v4.6c0,2.9-2.4,5.3-5.3,5.3c-0.9,0-1.7,0.8-1.7,1.7v31.6h0v58.4c3.1-2.3,5.2-5.9,5.2-10.1
								v-66.3h3.6v66.3c0,6.3-3.6,11.7-8.8,14.4v57.7H360v-71.7c-6.5-1.7-11.2-7.7-11.2-14.7v-2.1c-16.2-0.8-29.2-14.2-29.2-30.6
								v-19.3H323.3z"/>
							<g id="XMLID_414_">
								<path id="XMLID_421_" class="st30" d="M362.7,449.1h-1.5V300.3c1.2,0.5,1.5,1.5,1.5,1.5V449.1z"/>
								<rect id="XMLID_418_" x="371.6" y="298.8" class="st30" width="1.5" height="150.2"/>
								<rect id="XMLID_415_" x="365.9" y="310.8" class="st30" width="3.1" height="138.2"/>
							</g>
						</g>
					</g>
					<g id="XMLID_366_">
						<path id="XMLID_403_" class="st31" d="M298,314.6c0-3.3,2.7-6.1,6.1-6.1c0.7,0,1.4,0.1,2,0.3v-5c0-6.9,5.6-12.6,12.6-12.6h0
							c5.8,0,10.7,4,12.2,9.4c1.6-1.3,3.6-2,5.9-2l0,0c5,0,9.2,3.9,9.5,8.8c0.6-0.2,1.3-0.3,1.9-0.3l0,0c3.3,0,6.1,2.7,6.1,6.1v1.4
							L298,314.6L298,314.6z"/>
						<path id="XMLID_400_" class="st26" d="M344.7,284.5c0-5.9,4.8-10.7,10.7-10.7c1.2,0,2.4,0.2,3.5,0.6v-8.8
							c0-12.2,9.9-22.2,22.2-22.2h0c10.3,0,18.9,7,21.4,16.5c2.9-2.2,6.4-3.5,10.3-3.5l0,0c8.9,0,16.2,6.9,16.8,15.6
							c1.1-0.4,2.2-0.6,3.4-0.6h0c5.9,0,10.7,4.8,10.7,10.7v2.5h-99V284.5z"/>
						<path id="XMLID_397_" class="st32" d="M415.6,287c0-3.3,2.7-6.1,6.1-6.1c0.7,0,1.4,0.1,2,0.3v-5c0-6.9,5.6-12.6,12.6-12.6h0
							c5.8,0,10.7,4,12.2,9.4c1.6-1.3,3.6-2,5.9-2h0c5,0,9.2,3.9,9.5,8.8c0.6-0.2,1.3-0.3,1.9-0.3h0c3.3,0,6.1,2.7,6.1,6.1v1.4
							L415.6,287L415.6,287z"/>
						<path id="XMLID_394_" class="st32" d="M457.1,285.8c0-3.3,2.7-6.1,6.1-6.1c0.7,0,1.4,0.1,2,0.3v-5c0-6.9,5.6-12.6,12.6-12.6h0
							c5.8,0,10.7,4,12.2,9.4c1.6-1.3,3.6-2,5.9-2l0,0c5,0,9.2,3.9,9.5,8.8c0.6-0.2,1.3-0.3,1.9-0.3h0c3.3,0,6.1,2.7,6.1,6.1v1.4
							L457.1,285.8L457.1,285.8z"/>
						<path id="XMLID_391_" class="st33" d="M300.2,273.8c0.7,0,1.4,0.1,2,0.3v-5c0-6.9,5.6-12.6,12.6-12.6h0c5.8,0,10.7,4,12.2,9.4
							c1.6-1.3,3.6-2,5.9-2c5,0,9.2,3.9,9.5,8.8c0.6-0.2,1.3-0.3,1.9-0.3c0.4,0,0.8,0,1.2,0.1v-3.4c0-6.9,5.6-12.6,12.6-12.6h0
							c6.9,0,12.6,5.6,12.6,12.6v5.2c0.8-0.3,1.6-0.5,2.5-0.5h0c3.2,0,5.9,2.5,6.1,5.7h-85.1C294.3,276.3,296.9,273.8,300.2,273.8z"
							/>
						<path id="XMLID_388_" class="st33" d="M321,290.4c0-3.3,2.7-6.1,6.1-6.1c0.7,0,1.4,0.1,2,0.3v-5c0-6.9,5.6-12.6,12.6-12.6h0
							c5.8,0,10.7,4,12.2,9.4c1.6-1.3,3.6-2,5.9-2h0c5,0,9.2,3.9,9.5,8.8c0.6-0.2,1.3-0.3,1.9-0.3h0c3.3,0,6.1,2.7,6.1,6.1v1.4
							L321,290.4L321,290.4z"/>
						<path id="XMLID_385_" class="st31" d="M365.3,315.8c0-2.2,1.7-3.9,3.9-3.9c0.4,0,0.9,0.1,1.3,0.2v-3.2c0-4.5,3.6-8.1,8.1-8.1
							l0,0c3.8,0,6.9,2.6,7.8,6c1-0.8,2.3-1.3,3.8-1.3h0c3.2,0,5.9,2.5,6.1,5.7c0.4-0.1,0.8-0.2,1.3-0.2l0,0c2.2,0,3.9,1.7,3.9,3.9
							v0.9L365.3,315.8L365.3,315.8z"/>
						<path id="XMLID_382_" class="st33" d="M344.8,293.1c0-5.3,4.3-9.6,9.6-9.6h0c1.7,0,3.4,0.5,4.8,1.3c1.2-5.6,6.3-9.9,12.3-9.9
							c6.9,0,12.6,5.6,12.6,12.6v0.9c0.8-0.4,1.8-0.7,2.7-0.7c1.1,0,2.1,0.3,3,0.8v-1c0-6.9,5.6-12.6,12.6-12.6h0
							c5.9,0,10.8,4,12.2,9.4c1.4-5.4,6.3-9.4,12.2-9.4c6.9,0,12.6,5.6,12.6,12.6v1.2c0.9-0.6,2-0.9,3.2-0.9l0,0
							c3.3,0,6.1,2.7,6.1,6.1v0.4H344.8V293.1z"/>
						<path id="XMLID_379_" class="st29" d="M448.4,291c0-5.3,4.3-9.6,9.6-9.6h0c1.7,0,3.4,0.5,4.8,1.3c1.2-5.6,6.3-9.9,12.3-9.9
							c6.9,0,12.6,5.6,12.6,12.6v0.9c0.8-0.4,1.8-0.7,2.7-0.7c1.1,0,2.1,0.3,3,0.8v-1c0-6.9,5.6-12.6,12.6-12.6h0
							c5.9,0,10.8,4,12.2,9.4c1.4-5.4,6.3-9.4,12.2-9.4c6.9,0,12.6,5.6,12.6,12.6v1.2c0.9-0.6,2-0.9,3.2-0.9l0,0
							c3.3,0,6.1,2.7,6.1,6.1v0.4H448.4V291z"/>
						<path id="XMLID_376_" class="st31" d="M366.9,291c1.1,0,2.1,0.2,3,0.6v-2.4c0-8.3,6.7-15,15-15h0c8.3,0,15,6.7,15,15v2.6
							c1.1-0.5,2.3-0.8,3.6-0.8h0c4.4,0,8,3.5,8.1,7.8h-53C359,294.5,362.6,291,366.9,291z"/>
						<path id="XMLID_373_" class="st32" d="M411.8,312.4c0-3.3,2.7-6.1,6.1-6.1c0.7,0,1.4,0.1,2,0.3v-5c0-6.9,5.6-12.6,12.6-12.6h0
							c5.8,0,10.7,4,12.2,9.4c1.6-1.3,3.6-2,5.9-2h0c5,0,9.2,3.9,9.5,8.8c0.6-0.2,1.3-0.3,1.9-0.3h0c3.3,0,6.1,2.7,6.1,6.1v1.4
							L411.8,312.4L411.8,312.4z"/>
						<path id="XMLID_370_" class="st32" d="M478.7,299.2c0-3.2,2.6-5.8,5.8-5.8c0.7,0,1.3,0.1,1.9,0.3v-4.7c0-6.6,5.4-12,12-12h0
							c5.6,0,10.2,3.8,11.6,8.9c1.5-1.2,3.5-1.9,5.6-1.9h0c4.8,0,8.7,3.7,9.1,8.4c0.6-0.2,1.2-0.3,1.9-0.3l0,0
							c3.2,0,5.8,2.6,5.8,5.8v1.3L478.7,299.2L478.7,299.2z"/>
						<path id="XMLID_367_" class="st29" d="M477.8,311.7c0-2.5,2-4.5,4.5-4.5c0.5,0,1,0.1,1.5,0.2v-3.7c0-5.2,4.2-9.4,9.4-9.4l0,0
							c4.4,0,8,3,9.1,7c1.2-0.9,2.7-1.5,4.4-1.5l0,0c3.8,0,6.8,2.9,7.1,6.6c0.5-0.2,0.9-0.2,1.4-0.2h0c2.5,0,4.5,2,4.5,4.5v1
							L477.8,311.7L477.8,311.7z"/>
					</g>
				</g>
			</g>
		</g>
		<linearGradient id="XMLID_57_" gradientUnits="userSpaceOnUse" x1="505.4817" y1="79.8279" x2="505.4817" y2="179.8279">
			<stop  offset="0" style="stop-color:#FFC95C"/>
			<stop  offset="0.7767" style="stop-color:#FFC761;stop-opacity:0"/>
		</linearGradient>
		<circle id="XMLID_26_" class="st34" cx="505.5" cy="129.8" r="50"/>
		<g id="XMLID_12_">
			<g id="XMLID_2_">
				<rect id="XMLID_7_" y="446.1" class="st35" width="841.9" height="29.1"/>
				<rect id="XMLID_5_" y="446.1" class="st36" width="841.9" height="7.5"/>
				<path id="XMLID_575_" class="st37" d="M842.6,513c-0.4,1-0.9,1.9-1.5,2.7c-2,3.2-5,5.7-9.1,6.9c-0.3,0.1-17.3-1.5-27.4,2.6
					c-1.5,0.6-2.9,1.4-4,2.3c-0.8,0.7-1.6,1.3-2.5,1.8c-0.8,0.5-1.6,1-2.4,1.5c-2.6,1.4-5.3,2.4-8.3,2.9h0c-1.1,0.2-2.2,0.3-3.3,0.3
					c-2.1,0-4.3-0.2-6.4-0.6c-3-0.7-5.9-1.8-8.6-3.2c-1.6-0.8-3.1-1.8-4.5-2.8c-0.4-0.3-0.7-0.5-1.1-0.8c-1.3-1-2.4-2.3-3.5-3.5
					c-0.6-0.7-1.2-1.4-1.7-2.1c-1.5-1.8-2.9-3.7-4.4-5.4c-0.8-0.9-1.6-1.8-2.5-2.5c-1.4-1.2-2.9-2.3-4.6-2.9
					c-4.1-1.6-8.3-1.6-12.4-0.6c-1.2,0.3-2.4,0.7-3.5,1.1c-3.8,1.5-7.4,3.7-10.7,6.3c-0.6,0.5-1.2,1-1.8,1.5
					c-0.9,0.8-1.8,1.6-2.7,2.4c-0.6,0.6-1.2,1.1-1.8,1.7c-1.9,1.8-3.8,3.6-5.7,5.3c-0.7,0.7-1.5,1.4-2.3,2c-0.9,0.8-1.8,1.5-2.7,2.3
					c-4.3,3.4-8.8,6.1-14,7.3c-0.6,0.1-1.3,0.3-1.9,0.3c-3.4,0.5-6.7,0.2-9.9-0.6c-5.9-1.5-11.5-5-16.6-9.2
					c-1.1-0.9-2.1-1.8-3.2-2.7c-3.1-2.8-6-5.8-8.8-8.7c-0.3-0.3-0.6-0.6-0.8-0.9c-4.7-4.9-10.2-9.9-16-13.6c-3.2-2-6.5-3.6-9.9-4.6
					c-4.8-1.4-9.7-1.6-14.6,0.1c-3.8,1.3-7,3.5-9.8,6.2c-5,4.7-8.9,10.9-13,16.5c-0.2,0.3-0.4,0.5-0.6,0.8c-1.1,1.4-2.2,2.8-3.5,4.1
					c-1.4,1.5-3,3-4.6,4.3c-1.6,1.3-3.3,2.5-5.1,3.4c-4.2,2.2-8.8,3.2-13.4,1.9c-3.8-1-7.1-3.4-10.4-5.6c-2.4-1.6-4.9-3.1-7.5-3.9
					c-1.2-0.4-2.4-0.6-3.7-0.6c-2.5,0-4.7,0.7-6.9,1.8c-1,0.5-2,1-2.9,1.7c-1.7,1.1-3.4,2.3-5,3.5c-1.5,1-3,2-4.5,2.8
					c-1,0.5-2.1,1-3.2,1.4c-1.1,0.4-2.2,0.6-3.3,0.7c-2.1,0.2-4-0.1-5.9-0.8c-4.7-1.6-8.9-5.3-12.9-8.9c0,0,0,0,0,0
					c-1-0.9-2-1.7-2.9-2.5c-0.6-0.5-1.2-1-1.9-1.4c-4.5-2.9-9.9-3.5-14.9-2c-2,0.6-4,1.5-5.8,2.8c-0.7,0.5-1.4,0.9-2.1,1.4
					c-3.3,2.2-6.6,4.3-10,6.2c-1.2,0.6-2.4,1.2-3.6,1.8c-2.1,1-4.2,1.8-6.4,2.4c-5.2,1.5-11,1.9-16.3,0.6c-1.3-0.3-2.5-0.8-3.7-1.3
					c-1.4-0.6-2.8-1.4-4-2.4c-7.7-5.8-11.9-17.3-21.4-18.5c-1.9-0.2-3.6,0-5.3,0.5c-1.1,0.3-2.2,0.8-3.3,1.4
					c-0.2,0.1-0.4,0.3-0.7,0.4c-1.6,0.9-3.2,2.1-4.8,3.3c-5.6,4.3-11.1,9.7-17.9,9.7c-2.7,0-5.1-0.7-7.2-2c-1-0.6-2-1.3-2.9-2
					c-2.2-1.8-4.2-3.9-6.3-6.2c-1.4-1.5-2.8-3.1-4.3-4.6c-2-2.1-4.2-4-6.6-5.4c-4.1-2.4-8.8-3.3-13.5-3c-1.8,0.1-3.5,0.4-5.3,0.8
					c-0.1,0-0.2,0.1-0.4,0.1c-1.1,0.2-2.1,0.5-3.2,0.9c-3.5,1.1-6.8,2.7-9.9,4.6c-1.3,0.8-2.6,1.6-3.8,2.5c-1.5,1.1-3,2.2-4.5,3.3
					c-4.1,3.1-8,6.5-12.1,9.5c-0.8,0.6-1.6,1.2-2.4,1.7c-1.5,1.1-3.1,2.1-4.7,3c-7.5,4.4-16.9,6.9-25.1,4.9c-1.1-0.3-2.1-0.6-3.1-1
					c-1.4-0.6-2.7-1.3-4-2.1c-6.7-4.6-10-12.7-14.3-19.6c-0.7-1.1-1.5-2.3-2.4-3.4c-0.5-0.7-1.1-1.3-1.6-1.9
					c-2.2-2.5-4.9-4.6-7.7-5.9c-2.5-1.1-5.1-1.6-7.8-1.1c-0.4,0.1-0.8,0.1-1.1,0.2c-4.2,1.1-7.8,4.1-11.7,6.2c-1,0.5-2,1-3.1,1.4
					c-0.2,0.1-0.5,0.2-0.7,0.2c-0.8,0.2-1.6,0.4-2.4,0.5c-2,0.3-3.9,0.3-5.9,0c-8.8-1.2-17.7-7.1-26.8-8.4c-1.2-0.2-2.3-0.3-3.5-0.2
					c-0.6,0-1.2,0-1.8,0.1c-4,0.4-7.6,1.9-10.9,4.1c-1.1,0.7-2.2,1.6-3.3,2.4c-2.1,1.7-4.1,3.6-5.9,5.6c-2.7,2.9-5.3,5.9-8,8.7
					c-0.8,0.8-1.6,1.6-2.5,2.4c-2.1,2-4.4,3.8-7,5.3c-6.9,4-16.6,4.7-22.3-0.9c-5.7-5.6-7.5-16.8-15.5-16.8
					c-8.1,0-12.8,12.9-20.7,11.1c-3-0.7-5-3.4-7.1-5.8c-0.7-0.8-1.3-1.5-2.1-2.1c-0.7-0.5-1.4-1-2.2-1.3c-0.2-0.1-0.4-0.2-0.6-0.2
					c-0.7-0.2-1.4-0.4-2.1-0.4c-4.3-0.1-8.1,3.8-12,7c-0.8,0.7-1.7,1.4-2.6,2c-0.2,0.2-0.5,0.3-0.7,0.5c-6.6,4.1-14.8,2.4-21.1-2.2
					c-0.8-0.6-1.5-1.2-2.2-1.8c-2.8-2.5-5.2-5.6-6.6-9c-0.8-1.9-1.3-3.8-1.7-5.8c-0.3-1.6-0.5-3.2-0.6-4.8c-0.5-8.7,1.5-18,1.5-26.7
					h841.9C841.9,475.2,848.9,498.8,842.6,513z"/>
				<path id="XMLID_10_" class="st35" d="M16,486.4c-2,0-2,3.1,0,3.1C18,489.6,18,486.4,16,486.4z"/>
				<path id="XMLID_16_" class="st35" d="M72,498.5c-2,0-2,3.1,0,3.1C74,501.5,74,498.5,72,498.5z"/>
				<path id="XMLID_18_" class="st35" d="M104,500.2c-2.3,0-2.3,3.6,0,3.6C106.3,503.8,106.3,500.2,104,500.2z"/>
				<path id="XMLID_39_" class="st35" d="M98,477.3c-1.2,0-2.2,1.5-1.5,2.6c0.3,0.4,0.5,0.7,1,1c0.3,0.2,0.7,0.2,1,0
					c0.4-0.3,0.7-0.6,1-1C100.2,478.8,99.2,477.3,98,477.3z"/>
				<path id="XMLID_44_" class="st35" d="M111,516.2c-2.4,0-2.4,3.7,0,3.7C113.4,519.8,113.4,516.2,111,516.2z"/>
				<path id="XMLID_76_" class="st35" d="M203,488.4c-2.1,0-2.1,3.3,0,3.3C205.1,491.6,205.1,488.4,203,488.4z"/>
				<path id="XMLID_82_" class="st35" d="M179,482.7c-1.7,0-1.7,2.6,0,2.6C180.7,485.3,180.7,482.7,179,482.7z"/>
				<path id="XMLID_83_" class="st35" d="M181.1,500.9c-0.3-0.2-0.5-0.4-0.9-0.5c-0.2,0-0.2,0-0.1,0c0,0-0.1,0-0.2-0.1
					c-0.5-0.2-1-0.2-1.5-0.2c-1,0.1-2,0.8-1.9,1.9c0,1.1,0.8,1.9,1.9,1.9c1.2,0.1,1.9-0.1,2.7-0.8
					C181.7,502.6,181.7,501.4,181.1,500.9z"/>
				<path id="XMLID_84_" class="st35" d="M268,499.9c-4,0-4,6.2,0,6.2C272,506.1,272,499.9,268,499.9z"/>
				<path id="XMLID_86_" class="st35" d="M253,519.3c-0.8,0-0.8,1.3,0,1.3C253.8,520.7,253.8,519.3,253,519.3z"/>
				<path id="XMLID_345_" class="st35" d="M331,492.3c-0.7-0.4-1.3-0.3-2,0c-0.5,0.2-0.9,0.4-1.2,0.9c-0.3,0.5-0.3,1.1,0,1.6
					c0.3,0.5,0.7,0.7,1.2,0.9c0.7,0.3,1.3,0.4,2,0c0.6-0.4,1-1,1-1.7C332,493.3,331.6,492.6,331,492.3z"/>
				<path id="XMLID_386_" class="st35" d="M304,487.1c-2.4,0-2.4,3.7,0,3.7C306.4,490.9,306.4,487.1,304,487.1z"/>
				<path id="XMLID_390_" class="st35" d="M302,504.9c-1.4,0-1.4,2.1,0,2.1C303.4,507.1,303.4,504.9,302,504.9z"/>
				<path id="XMLID_392_" class="st35" d="M428.6,506.7c-0.2-0.5-0.3-0.8-0.7-1.2c-0.5-0.6-1.8-0.6-2.3,0c-0.3,0.4-0.5,0.8-0.7,1.2
					c-0.4,1.2,0.6,2.3,1.8,2.3C428,509.1,429,507.9,428.6,506.7z"/>
				<path id="XMLID_395_" class="st35" d="M401.1,480.8c-0.4-0.3-0.7-0.6-1.3-0.6c-0.3,0-0.6,0-0.9-0.1c-1.1,0-2.1,1-2,2
					c0,1.1,0.9,2.1,2,2c0.3,0,0.6,0,0.9-0.1c0.5-0.1,0.9-0.3,1.3-0.6C401.8,482.8,401.8,481.4,401.1,480.8z"/>
				<path id="XMLID_396_" class="st35" d="M439,506.5c-1.9,0-1.9,3,0,3C440.9,509.5,440.9,506.5,439,506.5z"/>
				<path id="XMLID_419_" class="st35" d="M380,484.1c-2.4,0-2.4,3.7,0,3.7C382.4,487.9,382.4,484.1,380,484.1z"/>
				<path id="XMLID_423_" class="st35" d="M408,512.3c-2.1,0-2.1,3.3,0,3.3C410.1,515.7,410.1,512.3,408,512.3z"/>
				<path id="XMLID_435_" class="st35" d="M455.5,494.5c-1-0.9-2.3-0.9-3.3,0c-0.3,0.3-0.6,0.6-0.9,0.9c-0.9,0.9-0.9,2.5,0,3.4
					c0.9,0.9,2.5,1,3.4,0c0.3-0.3,0.6-0.6,0.9-0.9C456.3,496.9,456.5,495.4,455.5,494.5z"/>
				<path id="XMLID_440_" class="st35" d="M480,506.1c-2.4,0-2.4,3.8,0,3.8C482.4,509.9,482.4,506.1,480,506.1z"/>
				<path id="XMLID_442_" class="st35" d="M507.4,483.5c-0.2-0.5-0.5-0.9-0.7-1.3c-0.6-1.2-2.5-0.1-1.9,1.1c0.5,0.8,0.8,1.8,1.8,2
					c0.2,0,0.5,0,0.6-0.2C507.5,484.5,507.6,484,507.4,483.5z"/>
				<path id="XMLID_443_" class="st35" d="M529.3,516.7c-0.1-0.5-0.3-0.9-0.7-1.2c-0.4-0.3-0.8-0.3-1.2,0c-0.4,0.3-0.6,0.7-0.7,1.2
					c-0.2,0.8,0.4,1.7,1.3,1.7C528.9,518.3,529.4,517.5,529.3,516.7z"/>
				<path id="XMLID_446_" class="st35" d="M527,494.6c-1.7,0-1.8,2.7,0,2.7C528.7,497.4,528.8,494.6,527,494.6z"/>
				<path id="XMLID_447_" class="st35" d="M577,492.1c-2.4,0-2.4,3.8,0,3.8C579.4,495.9,579.4,492.1,577,492.1z"/>
				<path id="XMLID_448_" class="st35" d="M605,486.9c-2.7,0-2.7,4.2,0,4.2C607.7,491.1,607.7,486.9,605,486.9z"/>
				<path id="XMLID_449_" class="st35" d="M636,490.5c-3.2,0-3.2,4.9,0,4.9C639.2,495.5,639.2,490.5,636,490.5z"/>
				<path id="XMLID_450_" class="st35" d="M572,512.1c-0.3,0-0.7-0.1-1-0.1c-1-0.1-2,1-2,2c0,1,0.9,2.1,2,2c0.3,0,0.7-0.1,1-0.1
					c1-0.1,1.9-0.8,1.9-1.9C573.8,512.9,573.1,512.2,572,512.1z"/>
				<path id="XMLID_451_" class="st35" d="M572.8,479.5c-0.7-0.4-1.9-0.3-2.3,0.6c-0.2,0.6-0.5,1.1-0.6,1.7
					c-0.1,0.3-0.1,0.5-0.1,0.8c0,0.9,1.1,1.7,1.9,1.1c0.3-0.2,0.5-0.4,0.7-0.6c0.2-0.1,0.4-0.3,0.5-0.6c0.2-0.2,0.3-0.5,0.4-0.7
					C573.8,481.1,573.6,479.9,572.8,479.5z"/>
				<path id="XMLID_452_" class="st35" d="M660,499.2c-2.4,0-2.4,3.7,0,3.7C662.4,502.8,662.4,499.2,660,499.2z"/>
				<path id="XMLID_453_" class="st35" d="M648,484.1c-2.4,0-2.4,3.8,0,3.8C650.4,487.9,650.4,484.1,648,484.1z"/>
				<path id="XMLID_454_" class="st35" d="M668,521.1c-2.5,0-2.5,3.8,0,3.8C670.5,524.9,670.5,521.1,668,521.1z"/>
				<path id="XMLID_456_" class="st35" d="M696,518.3c-2.2,0-2.2,3.5,0,3.5C698.2,521.7,698.2,518.3,696,518.3z"/>
				<path id="XMLID_457_" class="st35" d="M747.5,493.5c-1.2-1.4-3.8-0.3-3.7,1.5c0,0.8,0.4,1.5,1.1,1.9c0.8,0.5,2,0.4,2.6-0.3
					c0.4-0.4,0.8-0.9,0.8-1.5C748.3,494.4,747.9,493.9,747.5,493.5z"/>
				<path id="XMLID_458_" class="st35" d="M784.2,486.8h-0.6c-2.8,0-2.8,4.4,0,4.4h0.6C787,491.2,787,486.8,784.2,486.8z"/>
				<path id="XMLID_459_" class="st35" d="M784,507.2c-0.4,0-0.8,0.1-1.3,0.1c-0.7,0.1-1.3,1-1.3,1.7c0,0.7,0.5,1.5,1.3,1.7
					c0.4,0.1,0.8,0.1,1.3,0.1c0.9,0.1,1.8-0.9,1.8-1.8C785.8,508.1,785,507.1,784,507.2z"/>
				<path id="XMLID_460_" class="st35" d="M821.6,494.6c-0.4-0.2-0.9-0.5-1.4-0.5c-0.4,0-0.7,0.1-1,0.3c-0.1,0-0.1,0-0.2,0
					c-0.8,0.1-1.6,0.7-1.6,1.6c0,0.9,0.7,1.5,1.6,1.6c0.1,0,0.1,0,0.2,0c0.3,0.2,0.6,0.3,1,0.3c0.5,0,1-0.3,1.4-0.5
					C822.7,496.9,822.7,495.1,821.6,494.6z"/>
				<path id="XMLID_461_" class="st35" d="M840,482.1c-2.5,0-2.5,3.9,0,3.9C842.5,485.9,842.5,482.1,840,482.1z"/>
				<path id="XMLID_463_" class="st35" d="M801,487.6c-1.8,0-1.8,2.8,0,2.8C802.8,490.4,802.8,487.6,801,487.6z"/>
				<g id="XMLID_4_">
					<path id="XMLID_473_" class="st38" d="M299,490.4c0.6-0.6,1-1.3,1.4-1.9c0.5,1,1,2,1.7,3c3.5,5.1,9.3,7,13.8,10.8
						c2.1,1.8,3.3,3.9,4.1,6.3c1.8-0.4,3.5-0.7,5.3-0.8c-0.5-2.8-1.5-5.4-3.3-7.8c-2.8-3.6-6.7-5.7-10.3-8.4
						c-5.2-3.8-7.3-8.9-6.7-15.3c0-0.4,0-0.8-0.1-1.1h-12c-0.2,4.3-0.2,9.5-2.8,13.1c-2.8,3.8-9.1,3.6-13.1,5.8
						c-0.2,0.1-0.4,0.3-0.6,0.4c-2.2-2.3-5.1-3.7-8.1-4.8c-0.2-4.6,0.1-9.1,0-13.7c0-0.3-0.1-0.5-0.2-0.8h-44.4
						c-0.6,4.1-0.6,8.4-1.8,12.4c-0.8,2.6-2,5-3.2,7.5c-4,1.5-8.8,0.9-13,1.5c-3.1,0.4-6.1,1.4-8.6,3.1c-1.4-2.7-3.3-5.1-5.6-7.2
						c-6.3-5.8-14.6-8.2-22.9-7.2c-0.1-3.1-0.3-6.2-0.4-9.3c0-0.3-0.1-0.6-0.1-0.8h-18.8c0.1,0.3,0.3,0.7,0.6,0.9
						c0,0.2-0.1,0.5-0.1,0.7c-0.1,0.2-0.2,0.5-0.2,0.8c0,0.1,0,0.2,0,0.2c-2.7,12.5-25.2,4.6-34,8.2c-4.9,2-8.6,5.8-12.2,9.5
						c-0.2,0-0.3,0-0.5,0.1c-6.9,3-12.8,3.3-20.2,1.6c-2-0.5-4-0.9-6.1-1.3c-1.9-1.7-3.9-2.9-6.4-3.8c-3.3-1.2-6.7-1.4-10.2-1.8
						c-2.5-0.3-9-2.4-10-5.8c1.3-3.2,1.9-6.4,1.1-9.4h-9.9c-0.4,6.4-0.6,12.9-7.1,16.4c-2,1.1-4.2,1.8-6.2,2.5
						c0-0.3-0.1-0.5-0.1-0.8c-1.1-5.4-2.2-10.8-3-16.3c-0.1-1-0.7-1.6-1.4-1.9c-0.9-0.4-2.1-0.4-3,0c-1.1,0.5-1.9,1.4-1.8,2.8
						c0.3,3.6,0.8,7.2,1.3,10.8c-0.3,0.3-0.5,0.7-0.3,1.2c3.1,6.9-6.8,7.2-10.8,7.5c-3.1,0.2-6,0.7-8.5,2.7
						c-0.6,0.5-1.2,1.1-1.7,1.6c0.1,1.6,0.3,3.3,0.6,4.8c1.3-2.2,2.8-4.2,5.3-5.3c4.8-2.1,10.7-0.1,15.1-3.6
						c0.7-0.5,1.3-1.2,1.7-1.8c0.1,0.5,0.3,1,0.5,1.5c-0.8,0.7-1.5,1.5-2.1,2.5c-3.7,5.8-3.1,12.9-8.1,18.2
						c-1.2,1.3-2.6,2.4-4.1,3.4c0.7,0.6,1.5,1.2,2.2,1.8c7-4.2,8.8-10.4,11.3-17.6c0.6-1.8,1.4-3.2,2.5-4.4c0.8,1.7,1.7,3.4,2.6,5.3
						c2.2,4.8,2.8,10.6,4.5,15.6c0.3,0.9,0.6,1.8,1,2.8c0.9-0.6,1.7-1.3,2.6-2c-0.2-0.5-0.4-1.1-0.6-1.6c-1.6-4.4-4.5-9.9-5.1-14.6
						c-0.4-3.1-0.1-6-0.1-8.9c1.1-0.4,2.4-0.8,3.7-1.1c1.9-0.4,3.9-0.8,5.8-1.5c-0.8,4.2-0.1,8,2.9,11.5c2.3,2.8,5.8,5.1,5.5,9.1
						c0.7,0,1.4,0.1,2.1,0.4c0.2,0.1,0.4,0.1,0.6,0.2c0-0.2,0.1-0.3,0.1-0.5c1.1-4.8-2.5-7.8-4.9-11.4c-3.6-5.3-0.1-10.2,3-15
						c0.1,0.3,0.2,0.5,0.4,0.8c2.1,3.8,6.7,5.3,10.9,5.9c-5.8,2.2-10.6,7.1-9.1,13.8c0.1,0.5,1,0.4,1-0.1c0-6.9,5.7-12.3,12.3-13.4
						c3.9-0.6,7.6,0.3,11.4,1.3c2.3,1.5,3.8,3.7,6.1,5.6c2.1,1.7,4.7,3,7.2,2.6c-10.2,2.8-21.4,1.5-30.8,7.3
						c-1.9,1.2-3.8,2.7-5.5,4.3c0.7,0.6,1.4,1.3,2.1,2.1c0.9-0.8,1.9-1.5,3-2.1c5.9-3.2,13.6-2.9,20.1-3.2
						c11.5-0.6,21.5-3.3,29.2-12.1c3.4-3.9,6.3-8.7,10.9-11.3c6.1-3.5,13.6-2.1,20.3-2.3c3.6-0.1,8.3-1.5,11.7-4
						c0.1,0.2,0.3,0.3,0.4,0.5c-1.4,3.8-4.4,6.7-8.7,9.3c-4.8,2.9-10.2,5.5-13.2,10.5c-2.8,4.8-2.3,10.1-1.7,15.4
						c0.3,2,0.5,4.3,0.4,6.5c0.8-0.8,1.7-1.6,2.5-2.4c-0.5-6.4-2.6-13,1.4-18.6c2.8-4,7.2-6.3,11.5-8.6c-0.8,1.4-1.3,3-1.5,4.6
						c-0.3,3.1,0.8,5.9,2.4,8.3c1.1-0.9,2.2-1.7,3.3-2.4c-3.3-6.7,3.6-10.4,8-14.7c0.8-0.8,1.5-1.6,2.1-2.4c-0.1,1.6-0.1,3.1,0,4.3
						c0.2,3.2,1.2,6.1,2.6,8.6c1.2,0,2.4,0.1,3.5,0.2c-1-3.3-1.3-6.8-1.2-10.2c0.1-2.6,0.6-5,1.7-7.3c0,0.9,0.1,1.8,0.2,2.7
						c0.2,1.9,2,4,4.1,3.1c11.1-4.2,22.6,0.5,27.6,10.3c-1.5,2-2.4,4.3-3.5,6.6c-0.6,1.3-1.3,2.2-2.1,3c2,0.3,3.9,0.3,5.9,0
						c0.4-0.7,0.8-1.4,1.2-2.1c0.2-0.4,0.5-0.8,0.7-1.2c0.2,0.9,0.3,1.8,0.5,2.7c0.2-0.1,0.5-0.1,0.7-0.2c1.1-0.4,2.1-0.8,3.1-1.4
						c-0.3-1.7-0.6-3.4-1-5c1.7-1.2,3.8-1.8,6.7-2c2.1-0.1,4.3-0.2,6.5-0.3c-0.2,0.3-0.3,0.7-0.5,1c0.4-0.1,0.7-0.2,1.1-0.2
						c2.7-0.5,5.4,0,7.8,1.1c1.5-1.6,2.6-3.5,3.6-5.5c2.2-1.5,4-3.5,5.4-5.8c0.9,1.6,1.9,3.2,2.3,5c0.9,4.2-2.2,8.1-3.6,12.1
						c0.6,0.6,1.1,1.3,1.6,1.9c2.2-4.2,7.4-8.2,7-13.4c0-0.5-0.1-0.9-0.2-1.4c0.9-1.5,1.5-3.1,2.6-4.5c2.8-3.4,6.7-4.8,10.2-7.3
						c0,0,0,0,0,0c-0.1,2.1,0.4,4.3,1.7,6.8c3.7,7,8.9,11.3,6.5,19.8c-1.5,5-3.4,9.6-5,14.5c-0.5,1.3-0.9,2.6-1.1,4
						c-0.3,1.2-0.5,2.5-0.7,3.7c-0.1,0.9-0.2,1.9-0.3,2.9c1,0.4,2,0.7,3.1,1c0.3-2.7,0.9-5.3,1.6-7.9c0.1-0.5,0.3-1,0.5-1.5
						c3.1-5.3,7.8-9,11.6-14.1c2.6-3.4,4.1-7.2,4.8-11.2c0.3-0.5,0.5-1,0.8-1.5c0.2,0.5,0.4,1.1,0.7,1.6c1.8,3.6,5.5,5.5,9.3,6.6
						c0,0,0.1,0,0.1,0c2.9,5.3-0.1,14.5,0.3,20c0.8-0.5,1.6-1.1,2.4-1.7c-0.1-2.5,0-4.9,0.3-7.5c0.4-3.8,0.5-7.5-1.2-10.3
						c4.9,1.1,9.5,1.6,12.3,6.7c0.3,0.5,0.5,1.1,0.8,1.6c1.5-1.1,3-2.2,4.5-3.3c-2-4.2-5.3-7.6-9.8-9.2c-2.9-1-6-1.2-8.8-2.2
						c-2.3-0.8-3.3-2.2-4.1-3.7c2.3,0.8,4.6,1.2,7.1,1.2c4.6,0,9-1.2,13.6-0.5c3.8,0.6,8,1.9,11.5,3.5c2.1,1,3.4,2.3,4.2,3.8
						c1-0.3,2.1-0.6,3.2-0.9c-1.5-3.1-4.3-4.8-8-6.1c-6.3-2.3-12.5-4-19.3-3.5c-3.7,0.3-7,0.3-10.2-0.4c6-0.5,11.6-3.3,16.2-7.5
						C298.6,491,298.8,490.7,299,490.4z M91.1,504.9c-1,0.4-1.9,0.7-2.9,1c0.5-0.2,0.9-0.5,1.4-0.8c0.4-0.3,0.1-1-0.4-1
						c-4.3,0.4-6.7-1.6-9-4.2c0.2,0,0.4,0.1,0.6,0.1c5,1.1,11.3,2.2,16.6,0.9C95.5,502.5,93.5,503.9,91.1,504.9z"/>
					<path id="XMLID_472_" class="st38" d="M374.7,492.2c4.3,5.3,11.1,7.5,13,14.5c1,3.5,1.2,7.3,1.8,10.9c1.1-0.6,2.1-1,3.3-1.4
						c-0.4-2.2-0.7-4.5-1.1-6.9c-0.9-5.8-3.1-10-7.9-13.6c-6.3-4.7-9.9-9.6-11.2-16.8c0.1-1.2,0.3-2.4,0.3-3.7h-5.4
						c-0.1,0.1-0.1,0.3-0.2,0.4c-0.1-0.1-0.1-0.3-0.2-0.4h-4c-0.6,7.3,0.4,13.8-2.2,21c-2.7,7.2-7.8,11.7-13,17
						c-0.9,0.9-1.7,1.9-2.5,2.9c1.5,1.5,2.9,3.1,4.3,4.6c2-2.8,4.8-5,7.4-7.3c-0.3,4.2-0.7,8.4-1.1,12.6c0,0.3,0,0.6-0.1,0.9
						c1,0.8,1.9,1.4,2.9,2c0-0.7,0-1.3,0.1-1.9c0.2-5.1,0.2-10.3,0.2-15.4c1.1-1.1,2.2-2.3,3.1-3.5c0.8-1.1,1.5-2.4,2.3-3.7
						c0.9,4.6,3,8.4,8.2,10.3c3.4,1.3,7,1.4,9.7,4.2c0.6,0.7,1.2,1.4,1.7,2.2v0c1.6-1.2,3.1-2.3,4.8-3.3c-1.5-2.7-3.3-5.1-6.2-6.7
						c-2.4-1.4-5.5-1.7-7.8-3c-3.5-2.1-3.6-6.1-3.8-9.8c-0.3-3.8,0-7.5,0.5-11.2C372.3,488.9,373.4,490.6,374.7,492.2z"/>
					<path id="XMLID_479_" class="st38" d="M580.2,527c1.2-1.3,2.4-2.7,3.5-4.1c-2.1-0.4-4.3-0.8-6.3-1.4c-4.9-1.5-8.6-4.5-12.5-7.7
						c-1-1.5-1.5-3-1.9-5.7c-0.5-4.2-0.8-8.5-1-12.7c-0.2-4.2-0.4-8.5-0.6-12.8c0-1.3-0.6-4.5-0.8-7.5h-12c-0.6,5.1,0.4,11,0.6,15.7
						c0.1,3.3,0.5,6.9-0.5,10.2c-0.8,2.6-2.6,4.8-4.2,7c-3.5,3.2-8.5,5-12.8,7c-2.9,1.4-6,2.7-9,4.2c-1-1-2.2-2-3.5-2.9
						c-1.7-1.1-3.5-2.1-5.4-3c0-0.1-0.1-0.1-0.1-0.2c-2.8-3.3-6.5-4.2-10.1-6c-4-2-6.2-5.7-7.3-9.9c-2-7-2.3-14.6-3.1-21.9h-4.6
						c-0.1,0.7-0.1,1.4-0.2,2.2c-0.1-0.2-0.1-0.3-0.2-0.5c0-0.1-0.1-0.2-0.2-0.3c0.1-0.4,0.2-0.9,0.1-1.4h-14.7
						c-0.5,3.4-0.6,7-0.8,10.3c-0.4,6.2-0.8,12.8-0.2,19c-4.2,5.2-10.3,8.8-17.1,9.1c-6.7,0.3-13-1.3-19.2,1.9
						c-5,2.6-8.7,7.2-10.9,12.3c-1,2.4-1.7,4.8-1.9,7.4c0,0.3,0,0.8,0,1.3c1.2,0.5,2.4,1,3.7,1.3c0.1-8.1,4.3-16.2,11.9-19.6
						c4.5-2,9.1-1,13.9-0.9c3.9,0.1,7.7-0.4,11.3-1.9c1.1-0.5,2.2-1.1,3.2-1.7c-1.1,1.4-2.2,2.8-3.5,4c-3,3.1-6.9,5-10,7.9
						c-2.1,2-3.5,5.5-4.2,9.2c1.2-0.5,2.4-1.2,3.6-1.8c0.5-2.6,1.3-4.7,3.4-6.7c1.2-1.1,2.7-1.9,4-2.9c1.4-1.1,2.8-2.3,4-3.6
						c-0.7,2.2-1.2,4.6-1.5,7c0.7-0.5,1.4-0.9,2.1-1.4c1.8-1.3,3.8-2.2,5.8-2.8c1.5-3.4,3.8-6.1,6.6-9c0.3-0.4,0.6-0.7,0.9-1.1
						c0.1,0.1,0.3,0.1,0.5,0.1c1.1,2.4,2.7,4.5,4.3,7c1.1,1.6,1.9,3.3,2.6,5c0.6,0.4,1.3,0.9,1.9,1.4c1,0.8,2,1.7,2.9,2.5
						c-0.5-2-1.1-4-2-5.9c-1.8-4.3-4.8-7.8-6.7-12c-0.2-0.4-0.4-0.9-0.5-1.3c2.4-4.3,5-9,6.6-13.8c0.3,0.4,0.5,0.9,0.8,1.3
						c1.5,7.1,4.9,13.3,11.9,16.5c1.2,2,2.4,4,2.8,6.5c0.9,4.8,0.1,9.5-0.1,14.3c0,0.9,0,2,0,3.3c1.9,0.6,3.8,0.9,5.9,0.8
						c1.1-0.1,2.2-0.3,3.3-0.7c-0.3-2,0.1-4,1.4-6.1c0.3,0.9,0.5,1.8,0.9,2.7c0.3,0.7,0.6,1.4,0.9,2c1.5-0.8,3-1.8,4.5-2.8
						c-0.8-2.1-1.3-4.3-1.8-6.5c1.3-0.9,2.6-1.8,4-2.5c1.1,1.8,2,3.6,2.8,5.6c0.9-0.6,1.9-1.2,2.9-1.7c-0.8-1.9-1.8-3.7-2.8-5.3
						c1.6-0.8,3.3-1.5,4.8-2.3c2.9-1.4,6.6-2.9,10-4.8c-1.2,3.6-1.8,7.5-1.4,11.2c2.6,0.8,5.1,2.3,7.5,3.9c-0.4-4.3-1-8.3,0.9-12.8
						c2-4.6,5.8-8.2,7.8-12.8c0.2,2,0.4,4,0.6,6c0.4,2.9,1.2,5.5,3.2,7.7c1.4,1.6,3.3,2.6,4.6,4.3c1.1,1.5,1.6,3.3,2.4,5
						c1.1,2.5,2.3,4.5,4.3,6.2c1.8-0.9,3.5-2.1,5.1-3.4c-1.8-1.8-3-3.8-3.9-6.6c-0.1-0.3-0.2-0.5-0.3-0.7c1.3,0.7,2.6,1.3,3.9,1.8
						C577,526.3,578.6,526.7,580.2,527z M509.2,531.7c0.2-2.2,0.3-4.4,0.3-6.6c0-2.1-0.4-5.3-1.2-8.3c1.8,1.4,3.1,3.3,4,6.2
						c0.3,1,0.5,1.9,0.8,2.9C511.4,527.6,510,529.6,509.2,531.7z M517.9,522.1c-0.3-1.2-0.6-2.4-1-3.6c1.1,0.7,2.1,1.5,3.1,2.3
						C519.2,521.2,518.5,521.6,517.9,522.1z"/>
					<path id="XMLID_488_" class="st38" d="M718.8,505.4c4.1,1.6,8.2,2.9,11.8,5.3c1.2-0.5,2.4-0.8,3.5-1.1
						c-0.2-0.2-0.4-0.4-0.6-0.5c-6.1-4.9-21.2-6.5-24.9-14.4c-0.2-5.8-0.3-11.6-0.9-17.3c-0.1-0.9-0.5-1.6-1.1-2.1
						c-1-0.8-2.4-0.9-3.5,0c-0.2,0.2-0.5,0.4-0.7,0.7c-0.2,0.2-0.3,0.5-0.4,0.7h0c-0.1,0-0.2,0-0.3,0c0-0.5-0.1-0.9-0.2-1.4h-5.1
						c-0.6,3.4-0.5,7.1-0.7,10.5c-0.3,4.3-0.4,8.5-0.6,12.8c-0.3,0.4-0.5,0.7-0.8,1.1c-6.5,2.4-13.3,4.5-20.2,5.5c0,0,0,0-0.1,0
						c-2.4-0.4-4.8-0.4-7.1,1c-1.2,0.3-2.5,0.6-3.6,1.1c-0.4,0.2-0.8,0.4-1.1,0.5c-0.2-0.1-0.4-0.2-0.6-0.3
						c-7.7-3.6-17.3-8.6-20.7-16.9c0-0.2,0-0.4,0-0.6c-0.1-4.8-0.1-9.8-0.5-14.7h-8.2c-0.5,2.6-0.7,5.2-0.6,7.8
						c-0.4,0.3-0.7,0.9-0.5,1.5c3.1,11.4-21.8,11.9-28.4,13.8c-3.1,0.9-5,2.6-5.4,5.9c-0.1,0.5-0.1,1-0.2,1.5c2.8-2.7,6-4.9,9.8-6.2
						c4.9-1.6,9.8-1.5,14.6-0.1c0.4-0.1,0.9-0.2,1.3-0.3c3.3-0.9,7-2.6,9.4-5.2c0.1,3.4,0,6.8-0.8,10c5.9,3.7,11.4,8.7,16,13.6
						c0.3,0.3,0.5,0.6,0.8,0.9c0-0.1-0.1-0.3-0.1-0.4c3.8-2.3,7.8-4.4,11.7-6.5c0.4,0.3,0.9,0.5,1.3,0.8c-2.5,4.3-3.9,9.8-4.1,14.8
						c1,0.9,2.1,1.9,3.2,2.7c0.2-5.3,0.4-10.3,2.9-15.5c0.2-0.3,0.3-0.6,0.5-0.9c0.2,0,0.3,0.1,0.5,0.2c3.6,1.9,6.7,4.2,7.5,8.8
						c0.8,4.2,1.4,7.8,4.1,11.3c0.8,1.1,1.8,2,2.7,3c-0.6,0.8-1.1,1.7-1.6,2.5c3.2,0.8,6.5,1.1,9.9,0.6c0.7-0.1,1.3-0.2,1.9-0.3
						c-0.8-0.7-1.7-1.4-2.5-2.1c0.6-0.8,1.2-1.5,1.8-2.2c3.3-3.9,7.5-7,10.4-11.2c1.9,2.5,2.9,5.5,4.4,8.4c0.9-0.7,1.8-1.5,2.7-2.3
						c-0.4-0.7-0.8-1.5-1.1-2.4c-1.1-2.5-2.4-4.9-4.2-6.9c0.2-0.4,0.3-0.8,0.5-1.1c1.1-3.1,1.6-6.3,1.8-9.6c0.2,2.7,0.5,5.3,1,7.9
						c0.7,3.8,2,7.2,4.4,10.1c1.9-1.8,3.8-3.6,5.7-5.3c-1.1-1.5-2-3.2-2.5-5.2c-0.4-1.5-0.7-3-0.9-4.4c2.3,2.1,5.1,3.9,8,5.6
						c0.6-0.5,1.2-1,1.8-1.5c-3.7-2.2-7.5-4.4-10.3-7.3c-0.5-3.6-0.7-7.3-0.8-10.9C711.3,501.8,715.1,504,718.8,505.4z M655.5,511.4
						c-2.3,1.2-5,2.6-7.9,4.2c-0.6-2-1.2-4-2.1-5.9c-1.4-3-3.1-5.7-3.8-9c-0.1-0.7-0.3-1.4-0.4-2.2c1.5,2.1,3.3,4,5.4,5.6
						c3.2,2.5,6.9,4.4,10.5,6.2C656.8,510.8,656.2,511.1,655.5,511.4z M692.3,501.8c-2.3,2-5.1,3.6-8.2,4.2
						c-1.1,0.2-2.2,0.3-3.3,0.2C684.9,505.2,688.6,503.7,692.3,501.8z M687.1,525.6c-1,1.1-3.3,3.8-5.8,7.2c-2-2.2-3.7-4.6-4.4-7.8
						c-0.8-3.6-1-7.3-3.2-10.2c6.5,0.2,13.2,0.9,18.9,4.1C691.2,521.3,689.1,523.3,687.1,525.6z M694.2,515.3c0,0.2-0.1,0.3-0.2,0.5
						c-3.8-2.1-8.2-3.4-12.5-3.9c-3.3-0.4-7.3-0.1-11.2-0.2c-1.2-0.8-2.5-1.5-3.9-2.1c0.4-0.4,0.7-0.7,1.1-1
						c2.3-0.5,4.6-0.8,6.9-1.2c2.4,0.5,4.6,1.3,7.2,1.2c5.3-0.2,10.1-2.5,13.4-6.1C695.1,506.8,695.3,511.2,694.2,515.3z
						 M834.5,508.9c-6.1-2.6-12.8-3.6-18.8-6.3c-3.5-1.6-6.4-4-8.3-7c0-0.9,0-1.8-0.1-2.8c-0.2-5.4-0.6-11.9-2.3-17.5h-7.6
						c0.3,6.1,1.7,12.4,1.8,18.5c0,1.6,0,3.1,0,4.6c-5.2,4-11,6.8-17.3,8.4c-0.1-0.1-0.1-0.2-0.2-0.3c-1.5-2.5-2.8-5.2-3.8-8
						c-0.1-2.6-0.2-5.2-0.4-7.8c-0.3-4.4,0.3-10.7-1.2-15.4h-5.2c-1.4,5-0.4,11.6-0.4,16.3c0,0.4,0,0.8,0,1.3c0,0.1,0,0.2,0,0.3
						c0,0.4,0,0.7,0,1.1c0,0.2,0,0.4,0,0.7c-0.1,7.5-4.9,14.1-12.2,16.4c-2.4,0.8-4.9,1.2-7.4,1.8c0.9,0.8,1.7,1.6,2.5,2.5
						c1.6-0.4,3.3-0.8,4.9-1.2c2.4-0.7,4.5-1.8,6.4-3.1c-0.2,0.2-0.5,0.4-0.7,0.7c-2.4,2.7-4.6,5.8-6.2,9c0.6,0.7,1.1,1.4,1.7,2.1
						c3-3.3,5.1-7.9,8.7-10.3c0.4-0.3,0.8-0.5,1.3-0.6c-1.1,5.5-3.6,9.7-6.5,14.4c0.4,0.3,0.7,0.6,1.1,0.8c1.5,1,3,2,4.5,2.8
						c1.4-1.8,2.9-3.6,4.1-5.5c0.6-1.1,1.2-2.2,1.7-3.4c0,1.8,0.1,3.6,0.5,5.5c0.5,2.3,1.4,4.5,2.4,6.6c2.1,0.5,4.2,0.7,6.4,0.6
						c-1.1-2.7-2.4-5.2-3.1-7.2c-2-5.3-1.7-10.9-2.4-16.3c0.5,0,0.9-0.1,1.4-0.2c1.6,2.4,3.3,4.8,5.4,7.1c1.5,1.6,2.8,3.2,3.8,5
						c-1,3.4-1.6,6.9-1.8,10.6c0,0.2,0,0.5,0,0.7h0c3-0.5,5.8-1.5,8.3-2.9c-0.4-1.3-0.7-2.8-0.9-4.2c0.8-2.4,1.9-4.7,3.2-6.9
						c-0.3,3.2-0.5,6.5,0.2,9.6c0.9-0.6,1.7-1.2,2.5-1.8c1.1-0.9,2.5-1.7,4-2.3c-0.3-3.2,0-6.6,0-9.8c0-2.1,0.1-4.1,0.1-6.2
						c1.4-2.8,2.1-5.6,2.5-8.6c2.3,2.4,5.2,4.4,8.6,5.7c5.8,2.3,11.9,3.4,17.6,5.8c2.1,0.8,4.9,2,7.7,3.6c0.6-0.9,1-1.8,1.5-2.7
						C839.2,511,836.1,509.5,834.5,508.9z M770.3,508.5c-1.4,0.3-2.6,0.7-3.8,1.5c1.6-1.5,3-3.1,4.1-5
						C770.5,506.1,770.4,507.3,770.3,508.5z M797.7,505.3c-1.3,3.2-3.4,5.9-5.1,8.9c-0.7,1.1-1.2,2.3-1.8,3.5
						c-2.1-2.8-4.7-5.3-6.9-8c5.4-1.6,10.4-4.3,14.8-7.7C798.5,503,798.2,504.1,797.7,505.3z"/>
				</g>
			</g>
			<g id="XMLID_8_">
				<path id="XMLID_15_" class="st37" d="M34.5,533.4c-5.2,0-5.3,8.1,0,8.1C39.7,541.6,39.8,533.4,34.5,533.4z"/>
				<path id="XMLID_19_" class="st37" d="M66.5,535.9c-1.1,0-1.8,1-1.6,2.1c0,0.1,0,0.2,0.1,0.3c0.3,1.5,2.7,1.5,3,0
					c0-0.1,0-0.2,0.1-0.3C68.3,536.9,67.6,535.9,66.5,535.9z"/>
				<path id="XMLID_21_" class="st37" d="M77.5,524.1c-0.1,0-0.2-0.1-0.3-0.1c-1.3-0.4-2.6,0.7-2.6,2c0,1.3,1.3,2.3,2.6,2
					c0.1,0,0.2-0.1,0.3-0.1C79.4,527.3,79.4,524.7,77.5,524.1z"/>
				<path id="XMLID_40_" class="st37" d="M12,533.5c-2,0-2,3.1,0,3.1C14,536.5,14,533.5,12,533.5z"/>
				<path id="XMLID_55_" class="st37" d="M50,555.4c-2.7,0-2.7,4.2,0,4.2C52.7,559.6,52.7,555.4,50,555.4z"/>
				<path id="XMLID_131_" class="st37" d="M139.5,532.3c-1.7,0-3.3,1.5-3.2,3.2c0.1,1.7,1.4,3.2,3.2,3.2c1.7,0,3.3-1.5,3.2-3.2
					C142.6,533.8,141.3,532.3,139.5,532.3z"/>
				<path id="XMLID_242_" class="st37" d="M156.5,511.7c-2.4,0-2.4,3.7,0,3.7C158.9,515.3,158.9,511.7,156.5,511.7z"/>
				<path id="XMLID_244_" class="st37" d="M190.5,528.6c-0.9,0-2.1,0.9-1.9,1.9c0,0.1,0,0.2,0,0.3c0.1,1,0.8,2,1.9,1.9
					c1.1-0.1,1.8-0.8,1.9-1.9c0-0.1,0-0.2,0-0.3C192.6,529.5,191.5,528.5,190.5,528.6z"/>
				<path id="XMLID_246_" class="st37" d="M206.5,553.2c-1.7,0-1.7,2.6,0,2.6C208.2,555.8,208.2,553.2,206.5,553.2z"/>
				<path id="XMLID_247_" class="st37" d="M173.5,540.8c-0.1-0.1-0.2-0.2-0.4-0.3c-0.1-0.1-0.2-0.2-0.4-0.3c-1-0.7-2.3,0.3-2.3,1.3
					c0,1.1,1.4,2.1,2.3,1.3c0.1-0.1,0.3-0.2,0.4-0.3c0.1-0.1,0.3-0.2,0.4-0.3C173.9,541.8,173.9,541.2,173.5,540.8z"/>
				<path id="XMLID_444_" class="st37" d="M216.9,521.7c-0.5-0.6-1.2-1.2-2-1.4c-1-0.2-2.3-0.2-3.2,0.4c-0.6,0.3-1,0.8-1.4,1.4
					c-0.3,0.4-0.4,0.9-0.5,1.4c-0.2,1.3,0.3,2.2,1,3.2c0,0,0,0,0,0.1c0.9,1.1,2.5,1.3,3.8,1l0.1,0c0.8-0.2,1.5-0.8,2-1.4
					c0.5-0.7,0.8-1.4,0.8-2.3c0,0,0,0,0,0C217.7,523.2,217.4,522.4,216.9,521.7z"/>
				<path id="XMLID_445_" class="st37" d="M226.4,542.6c-1-0.6-2.2-0.2-2.8,0.7c-0.7,1.1,0,2.7,1.2,3c0.8,0.2,1.6,0,2.1-0.7
					C227.7,544.6,227.4,543.2,226.4,542.6z"/>
				<path id="XMLID_455_" class="st37" d="M304.7,539.4c-0.1-0.5-0.6-1-1.1-1.1c-0.5-0.1-0.9-0.1-1.4,0.2c-0.3,0.2-0.5,0.4-0.8,0.6
					c-0.7,0.6-0.6,1.9,0,2.5c0.6,0.6,1.9,0.8,2.5,0c0.2-0.3,0.5-0.5,0.6-0.8C304.8,540.3,304.7,539.9,304.7,539.4z"/>
				<path id="XMLID_462_" class="st37" d="M274.2,545.7c-0.1-0.4-0.3-0.7-0.5-1c-0.7-1-2.1-1.3-3-0.4c-0.9,0.9-0.7,2.4,0.4,3
					c0.3,0.2,0.7,0.4,1,0.5C273.3,548.2,274.6,547,274.2,545.7z"/>
				<path id="XMLID_476_" class="st37" d="M288,557.2c-1.5,0-1.5,2.3,0,2.3C289.5,559.5,289.5,557.2,288,557.2z"/>
				<path id="XMLID_483_" class="st37" d="M320,519.3c-0.8,0-1.8,0.8-1.7,1.7c0,0.3,0.1,0.6,0.1,0.9c0.3,1.5,2.8,1.5,3.1,0
					c0.1-0.3,0.1-0.6,0.1-0.9C321.8,520.1,320.8,519.3,320,519.3z"/>
				<path id="XMLID_484_" class="st37" d="M351.4,534.9c-0.9-1.6-3-2.1-4.6-1.2c-0.8,0.4-1.3,1.2-1.5,2c-0.2,0.7-0.2,1.7,0.2,2.4
					c0.5,0.7,1,1.3,1.8,1.6c0.9,0.4,1.7,0.4,2.6,0C351.6,539,352.4,536.7,351.4,534.9z"/>
				<path id="XMLID_486_" class="st37" d="M327.3,530.9c-2.7,0-2.7,4.2,0,4.2C330,535.1,330,530.9,327.3,530.9z"/>
				<path id="XMLID_491_" class="st37" d="M402.7,521.5c-4.5,0-4.5,7.1,0,7.1C407.2,528.5,407.2,521.5,402.7,521.5z"/>
				<path id="XMLID_493_" class="st37" d="M399.2,538.5c-0.2-0.5-0.7-0.8-1.2-0.8c-0.5,0-0.9,0.3-1.1,0.7c-0.3,0.5-0.2,1.2,0.2,1.6
					c0.1,0.1,0.2,0.1,0.3,0.2c0.4,0.3,0.9,0.3,1.3,0c0.1-0.1,0.2-0.1,0.3-0.2C399.3,539.6,399.4,538.9,399.2,538.5z"/>
				<path id="XMLID_498_" class="st37" d="M389.3,551.5c-2.8,0-2.8,4.3,0,4.3C392.1,555.8,392.1,551.5,389.3,551.5z"/>
				<path id="XMLID_501_" class="st37" d="M381.3,535.4c-0.9,0-1.7,0.8-1.6,1.6c0,0.9,0.7,1.6,1.6,1.6c0.9,0,1.7-0.8,1.6-1.6
					C382.9,536.1,382.3,535.4,381.3,535.4z"/>
				<path id="XMLID_502_" class="st37" d="M442,549.9c-2,0-3.9,1.7-3.8,3.8c0.1,2,1.7,3.8,3.8,3.8c2,0,3.9-1.7,3.8-3.8
					C445.7,551.6,444.1,549.9,442,549.9z"/>
				<path id="XMLID_503_" class="st37" d="M473.3,532.9c-1.4,0-2.8,1.3-2.8,2.8c0.1,1.5,1.2,2.8,2.8,2.8c1.4,0,2.8-1.3,2.8-2.8
					C476,534.2,474.9,532.9,473.3,532.9z"/>
				<path id="XMLID_504_" class="st37" d="M483.2,548c-0.4-0.5-0.8-0.6-1.4-0.7c-1.1-0.2-2.1,0.5-2.1,1.6c0,1.2,1.1,1.8,2.1,1.6
					c0.5-0.1,0.9-0.2,1.2-0.5c0.3-0.3,0.5-0.7,0.5-1.1C483.6,548.6,483.4,548.3,483.2,548z"/>
				<path id="XMLID_505_" class="st37" d="M457.3,543.9c-0.9,0-1.8,0.8-1.7,1.7c0,0.9,0.8,1.7,1.7,1.7c0.9,0,1.8-0.8,1.7-1.7
					C459,544.7,458.3,543.9,457.3,543.9z"/>
				<path id="XMLID_506_" class="st37" d="M496,541.6c-3.5,0-3.5,5.4,0,5.4C499.5,547,499.5,541.6,496,541.6z"/>
				<path id="XMLID_507_" class="st37" d="M537.3,544.2c-1.5,0-2.9,1.3-2.8,2.8c0.1,1.5,1.2,2.8,2.8,2.8c1.5,0,2.9-1.3,2.8-2.8
					C540.1,545.5,538.9,544.2,537.3,544.2z"/>
				<path id="XMLID_508_" class="st37" d="M590.7,538.7c-2.9,0-2.9,4.5,0,4.5C593.6,543.3,593.6,538.7,590.7,538.7z"/>
				<path id="XMLID_509_" class="st37" d="M612,509.2c-3.2,0-3.2,4.9,0,4.9C615.2,514.1,615.2,509.2,612,509.2z"/>
				<path id="XMLID_510_" class="st37" d="M630.1,523.5c-0.5-0.9-1.8-1-2.5-0.3c-0.7,0.7-0.6,2,0.3,2.5c0.7,0.4,1.6,0.6,2.2,0
					C630.7,525.1,630.4,524.2,630.1,523.5z"/>
				<path id="XMLID_511_" class="st37" d="M626.7,541.6c-2.7,0-2.7,4.2,0,4.2C629.4,545.8,629.4,541.6,626.7,541.6z"/>
				<path id="XMLID_512_" class="st37" d="M615.3,529.9c-0.2,0-0.3,0-0.5,0c-0.9,0.1-1.8,0.8-1.8,1.8c0,1,0.8,1.7,1.8,1.8
					c0.2,0,0.3,0,0.5,0c0.9-0.1,1.8-0.7,1.8-1.8C617,530.6,616.3,530,615.3,529.9z"/>
				<path id="XMLID_513_" class="st37" d="M640,527.9c-2.2,0-2.2,3.4,0,3.4C642.2,531.4,642.2,527.9,640,527.9z"/>
				<path id="XMLID_514_" class="st37" d="M630.7,510.9c-1.8,0-1.8,2.8,0,2.8C632.5,513.8,632.5,510.9,630.7,510.9z"/>
				<path id="XMLID_515_" class="st37" d="M672.5,547.1c-0.8-0.7-1.8-1.3-2.9-1.2c-1.1,0-2.2,0.4-2.9,1.2c-0.3,0.4-0.6,0.7-0.9,1.1
					l-0.4,1c-0.2,0.5-0.2,1.1-0.1,1.6c0.1,0.9,0.5,1.8,1.1,2.4c0.5,0.5,1.1,0.8,1.8,1.1c0.9,0.3,2.4,0.2,3.2-0.4
					c0.4-0.3,0.8-0.6,1.1-0.9c0.8-0.7,1.2-1.9,1.2-2.9C673.7,549.1,673.3,547.8,672.5,547.1z"/>
				<path id="XMLID_516_" class="st37" d="M712,543.2c-1.3,0-2.5,1.1-2.5,2.5c0.1,1.3,1.1,2.5,2.5,2.5c1.3,0,2.5-1.1,2.5-2.5
					C714.4,544.3,713.4,543.2,712,543.2z"/>
				<path id="XMLID_517_" class="st37" d="M726.5,521.9c-0.4-0.8-1.4-1.4-2.3-1.4c-0.8,0-1.5,0.3-2,0.9c-0.5,0.5-0.9,1.3-0.9,2
					c0,1.1,0.8,2.2,1.9,2.5c0.9,0.2,2-0.1,2.6-0.9c0,0,0.1,0,0.1-0.1C726.9,524.2,727,523,726.5,521.9z"/>
				<path id="XMLID_518_" class="st37" d="M730,532.6c-2.2,0-2.2,3.4,0,3.4C732.2,536.1,732.2,532.6,730,532.6z"/>
				<path id="XMLID_519_" class="st37" d="M743.3,542.4c-2.5,0-2.5,3.8,0,3.8C745.8,546.2,745.8,542.4,743.3,542.4z"/>
				<path id="XMLID_520_" class="st37" d="M749.3,524.4c-2.5,0-2.5,3.9,0,3.9C751.8,528.3,751.8,524.4,749.3,524.4z"/>
				<path id="XMLID_521_" class="st37" d="M797.5,542c-1.6-0.9-3.8-0.7-5.1,0.7c-0.3,0.3-0.5,0.7-0.8,1c-0.8,1-0.8,3,0,4
					c0.2,0.3,0.5,0.7,0.8,1c1.2,1.2,3.1,1.5,4.6,0.9c1.5-0.6,2.7-2.2,2.6-3.8C799.5,544.2,798.8,542.8,797.5,542z"/>
				<path id="XMLID_522_" class="st37" d="M814,531.2c-3.1,0-3.1,4.9,0,4.9C817.1,536.1,817.1,531.2,814,531.2z"/>
				<path id="XMLID_523_" class="st37" d="M826,538.9c-2.6,0-2.6,4.1,0,4.1C828.6,543.1,828.6,538.9,826,538.9z"/>
				<path id="XMLID_524_" class="st37" d="M836,528.3c-1.8,0-1.8,2.8,0,2.8C837.8,531.1,837.8,528.3,836,528.3z"/>
			</g>
		</g>
	</g>
</g>
</svg>
